<?xml version="1.0" encoding="iso-8859-1"?>
<!-- Generator: Adobe Illustrator 19.2.1, SVG Export Plug-In . SVG Version: 6.00 Build 0)  -->
<svg version="1.1" id="church-wedding-cross-building-christ"
	 xmlns="http://www.w3.org/2000/svg" xmlns:xlink="http://www.w3.org/1999/xlink" x="0px" y="0px" viewBox="0 0 64 64"
	 style="enable-background:new 0 0 64 64;" xml:space="preserve">
<circle style="fill:#FFFFFF;" cx="32" cy="36" r="3"/>
<path style="fill:#FFFFFF;" d="M20,26c-1.103,0-2,0.897-2,2v4h4v-4C22,26.897,21.102,26,20,26z"/>
<rect x="6" y="46" style="fill:#FFFFFF;" width="2" height="2"/>
<path style="fill:#FFFFFF;" d="M6,43v1h2v-1c0-0.551-0.448-1-1-1C6.448,42,6,42.449,6,43z"/>
<path style="fill:#FFFFFF;" d="M44,38c-1.103,0-2,0.897-2,2v4h4v-4C46,38.897,45.102,38,44,38z"/>
<path style="fill:#E87B5A;" d="M2,38.414V59c0,1.654,1.346,3,3,3h7V38.414l-5-5L2,38.414z M10,43v14c0,0.552-0.447,1-1,1H5
	c-0.553,0-1-0.448-1-1V43c0-1.654,1.346-3,3-3C8.654,40,10,41.346,10,43z"/>
<path style="fill:#FFFFFF;" d="M20,50c-1.103,0-2,0.897-2,2v4h4v-4C22,50.897,21.102,50,20,50z"/>
<path style="fill:#FFFFFF;" d="M32,46c-2.206,0-4,1.794-4,4v12h8V50C36,47.794,34.206,46,32,46z"/>
<path style="fill:#FFFFFF;" d="M44,50c-1.103,0-2,0.897-2,2v4h4v-4C46,50.897,45.102,50,44,50z"/>
<path style="fill:#FFFFFF;" d="M56,43v1h2v-1c0-0.551-0.448-1-1-1C56.448,42,56,42.449,56,43z"/>
<rect x="56" y="46" style="fill:#FFFFFF;" width="2" height="2"/>
<rect x="56" y="50" style="fill:#FFFFFF;" width="2" height="2"/>
<path style="fill:#E87B5A;" d="M52,38.414V62h7c1.654,0,3-1.346,3-3V38.414l-5-5L52,38.414z M60,43v14c0,0.552-0.447,1-1,1h-4
	c-0.553,0-1-0.448-1-1V43c0-1.654,1.346-3,3-3C58.654,40,60,41.346,60,43z"/>
<path style="fill:#EEC97B;" d="M26,15v2h4c0.553,0,1,0.448,1,1v9h2v-9c0-0.552,0.447-1,1-1h4v-2h-4c-0.553,0-1-0.448-1-1v-4h-2v4
	c0,0.552-0.447,1-1,1H26z"/>
<path style="fill:#FFFFFF;" d="M46,28c0-1.103-0.898-2-2-2c-1.103,0-2,0.897-2,2v4h4V28z"/>
<rect x="56" y="54" style="fill:#FFFFFF;" width="2" height="2"/>
<path style="fill:#E87B5A;" d="M14,20.414V38v24h12V50c0-3.309,2.691-6,6-6c3.309,0,6,2.691,6,6v12h12V38V20.414l-18-18L14,20.414z
	 M24,57c0,0.552-0.447,1-1,1h-6c-0.553,0-1-0.448-1-1v-5c0-2.206,1.794-4,4-4c2.206,0,4,1.794,4,4V57z M24,45c0,0.552-0.447,1-1,1
	h-6c-0.553,0-1-0.448-1-1v-5c0-2.206,1.794-4,4-4c2.206,0,4,1.794,4,4V45z M24,33c0,0.552-0.447,1-1,1h-6c-0.553,0-1-0.448-1-1v-5
	c0-2.206,1.794-4,4-4c2.206,0,4,1.794,4,4V33z M32,41c-2.757,0-5-2.243-5-5s2.243-5,5-5c2.757,0,5,2.243,5,5S34.757,41,32,41z
	 M48,57c0,0.552-0.447,1-1,1h-6c-0.553,0-1-0.448-1-1v-5c0-2.206,1.794-4,4-4c2.206,0,4,1.794,4,4V57z M48,45c0,0.552-0.447,1-1,1
	h-6c-0.553,0-1-0.448-1-1v-5c0-2.206,1.794-4,4-4c2.206,0,4,1.794,4,4V45z M44,24c2.206,0,4,1.794,4,4v5c0,0.552-0.447,1-1,1h-6
	c-0.553,0-1-0.448-1-1v-5C40,25.794,41.794,24,44,24z M35,9v4h4c0.553,0,1,0.448,1,1v4c0,0.552-0.447,1-1,1h-4v9
	c0,0.552-0.447,1-1,1h-4c-0.553,0-1-0.448-1-1v-9h-4c-0.553,0-1-0.448-1-1v-4c0-0.552,0.447-1,1-1h4V9c0-0.552,0.447-1,1-1h4
	C34.553,8,35,8.448,35,9z"/>
<rect x="6" y="50" style="fill:#FFFFFF;" width="2" height="2"/>
<rect x="6" y="54" style="fill:#FFFFFF;" width="2" height="2"/>
<path style="fill:#FFFFFF;" d="M20,38c-1.103,0-2,0.897-2,2v4h4v-4C22,38.897,21.102,38,20,38z"/>
<path style="fill:#3C4A53;" d="M29,9v4h-4c-0.553,0-1,0.448-1,1v4c0,0.552,0.447,1,1,1h4v9c0,0.552,0.447,1,1,1h4
	c0.553,0,1-0.448,1-1v-9h4c0.553,0,1-0.448,1-1v-4c0-0.552-0.447-1-1-1h-4V9c0-0.552-0.447-1-1-1h-4C29.447,8,29,8.448,29,9z M31,14
	v-4h2v4c0,0.552,0.447,1,1,1h4v2h-4c-0.553,0-1,0.448-1,1v9h-2v-9c0-0.552-0.447-1-1-1h-4v-2h4C30.553,15,31,14.552,31,14z"/>
<path style="fill:#3C4A53;" d="M63.707,37.293L58,31.586V25h-2v6.586l-4,4V20c0-0.265-0.106-0.52-0.293-0.707l-19-19
	c-0.391-0.391-1.023-0.391-1.414,0l-19,19C12.105,19.481,12,19.735,12,20v15.586l-4-4V25H6v6.586l-5.707,5.707
	C0.105,37.481,0,37.735,0,38v21c0,2.757,2.243,5,5,5h8h14h10h14h8c2.757,0,5-2.243,5-5V38C64,37.735,63.894,37.481,63.707,37.293z
	 M12,62H5c-1.654,0-3-1.346-3-3V38.414l5-5l5,5V62z M36,62h-8V50c0-2.206,1.794-4,4-4c2.206,0,4,1.794,4,4V62z M50,38v24H38V50
	c0-3.309-2.691-6-6-6c-3.309,0-6,2.691-6,6v12H14V38V20.414l18-18l18,18V38z M62,59c0,1.654-1.346,3-3,3h-7V38.414l5-5l5,5V59z"/>
<path style="fill:#3C4A53;" d="M32,31c-2.757,0-5,2.243-5,5s2.243,5,5,5c2.757,0,5-2.243,5-5S34.757,31,32,31z M32,39
	c-1.654,0-3-1.346-3-3s1.346-3,3-3c1.654,0,3,1.346,3,3S33.654,39,32,39z"/>
<path style="fill:#3C4A53;" d="M54,43v14c0,0.552,0.447,1,1,1h4c0.553,0,1-0.448,1-1V43c0-1.654-1.346-3-3-3
	C55.346,40,54,41.346,54,43z M58,56h-2v-2h2V56z M58,52h-2v-2h2V52z M58,48h-2v-2h2V48z M58,43v1h-2v-1c0-0.551,0.448-1,1-1
	C57.552,42,58,42.449,58,43z"/>
<path style="fill:#3C4A53;" d="M4,43v14c0,0.552,0.447,1,1,1h4c0.553,0,1-0.448,1-1V43c0-1.654-1.346-3-3-3C5.346,40,4,41.346,4,43z
	 M8,56H6v-2h2V56z M8,52H6v-2h2V52z M8,48H6v-2h2V48z M8,43v1H6v-1c0-0.551,0.448-1,1-1C7.552,42,8,42.449,8,43z"/>
<path style="fill:#3C4A53;" d="M20,24c-2.206,0-4,1.794-4,4v5c0,0.552,0.447,1,1,1h6c0.553,0,1-0.448,1-1v-5
	C24,25.794,22.206,24,20,24z M22,32h-4v-4c0-1.103,0.897-2,2-2c1.102,0,2,0.897,2,2V32z"/>
<path style="fill:#3C4A53;" d="M40,33c0,0.552,0.447,1,1,1h6c0.553,0,1-0.448,1-1v-5c0-2.206-1.794-4-4-4c-2.206,0-4,1.794-4,4V33z
	 M42,28c0-1.103,0.897-2,2-2c1.102,0,2,0.897,2,2v4h-4V28z"/>
<path style="fill:#3C4A53;" d="M20,36c-2.206,0-4,1.794-4,4v5c0,0.552,0.447,1,1,1h6c0.553,0,1-0.448,1-1v-5
	C24,37.794,22.206,36,20,36z M22,44h-4v-4c0-1.103,0.897-2,2-2c1.102,0,2,0.897,2,2V44z"/>
<path style="fill:#3C4A53;" d="M44,36c-2.206,0-4,1.794-4,4v5c0,0.552,0.447,1,1,1h6c0.553,0,1-0.448,1-1v-5
	C48,37.794,46.206,36,44,36z M46,44h-4v-4c0-1.103,0.897-2,2-2c1.102,0,2,0.897,2,2V44z"/>
<path style="fill:#3C4A53;" d="M20,48c-2.206,0-4,1.794-4,4v5c0,0.552,0.447,1,1,1h6c0.553,0,1-0.448,1-1v-5
	C24,49.794,22.206,48,20,48z M22,56h-4v-4c0-1.103,0.897-2,2-2c1.102,0,2,0.897,2,2V56z"/>
<path style="fill:#3C4A53;" d="M44,48c-2.206,0-4,1.794-4,4v5c0,0.552,0.447,1,1,1h6c0.553,0,1-0.448,1-1v-5
	C48,49.794,46.206,48,44,48z M46,56h-4v-4c0-1.103,0.897-2,2-2c1.102,0,2,0.897,2,2V56z"/>
</svg>
