<?xml version="1.0" encoding="UTF-8" standalone="no"?> <svg width="64" height="64" viewBox="0 0 64 64" fill="none" xmlns="http://www.w3.org/2000/svg">
<path d="M36.5 39.206C34.9584 38.3159 33.1876 37.9029 31.4113 38.0193C29.6351 38.1357 27.9332 38.7762 26.521 39.8598C25.1088 40.9433 24.0496 42.4214 23.4774 44.107C22.9052 45.7925 22.8456 47.6099 23.3063 49.3293C23.767 51.0487 24.7272 52.5929 26.0655 53.7666C27.4038 54.9403 29.0601 55.6907 30.8249 55.9231C32.5898 56.1554 34.3838 55.8592 35.9803 55.0719C37.5768 54.2846 38.904 53.0416 39.794 51.5C40.9874 49.4329 41.3108 46.9764 40.6931 44.6708C40.0753 42.3652 38.567 40.3995 36.5 39.206V39.206ZM29.5 51.33C28.6435 50.8355 27.953 50.0982 27.5156 49.2113C27.0782 48.3244 26.9136 47.3277 27.0427 46.3472C27.1718 45.3667 27.5887 44.4466 28.2407 43.7031C28.8928 42.9596 29.7507 42.4261 30.7059 42.1702C31.6611 41.9143 32.6708 41.9473 33.6072 42.2652C34.5436 42.5831 35.3648 43.1716 35.9668 43.9561C36.5688 44.7407 36.9246 45.6862 36.9892 46.673C37.0539 47.6598 36.8245 48.6436 36.33 49.5C35.6669 50.6484 34.5748 51.4863 33.294 51.8295C32.0131 52.1727 30.6484 51.993 29.5 51.33Z" fill="#F9E109"/>
<path d="M32.806 42.08C33.4019 42.1719 33.976 42.3719 34.5 42.67C34.54 42.693 34.57 42.725 34.609 42.749L36.5 39.474L34.648 38.4C33.6991 38.108 32.7083 37.9758 31.716 38.009L32.806 42.08Z" fill="#FCBC04"/>
<path d="M32 15C27.451 15 23.0042 16.3489 19.2219 18.8762C15.4396 21.4035 12.4916 24.9956 10.7508 29.1983C9.00997 33.401 8.55449 38.0255 9.44195 42.4871C10.3294 46.9486 12.5199 51.0468 15.7366 54.2635C18.9532 57.4801 23.0514 59.6706 27.5129 60.5581C31.9745 61.4455 36.599 60.99 40.8017 59.2492C45.0044 57.5084 48.5965 54.5604 51.1238 50.7781C53.6511 46.9958 55 42.549 55 38C55 31.9 52.5768 26.0499 48.2635 21.7365C43.9501 17.4232 38.1 15 32 15ZM32 56C28.4399 56 24.9598 54.9443 21.9997 52.9665C19.0397 50.9886 16.7326 48.1774 15.3702 44.8883C14.0078 41.5992 13.6513 37.98 14.3459 34.4884C15.0404 30.9967 16.7547 27.7894 19.2721 25.2721C21.7894 22.7547 24.9967 21.0404 28.4884 20.3459C31.98 19.6513 35.5992 20.0078 38.8883 21.3702C42.1774 22.7325 44.9886 25.0397 46.9665 27.9997C48.9443 30.9598 50 34.4399 50 38C50 42.7739 48.1036 47.3523 44.7279 50.7279C41.3523 54.1036 36.7739 56 32 56V56Z" fill="#F9E109"/>
<path d="M24.319 16.319L28.367 20.367C29.5625 20.1227 30.7797 19.9997 32 20L36.548 15.452C32.4681 14.632 28.2423 14.9316 24.319 16.319V16.319Z" fill="#FCBC04"/>
<path d="M32 21L28 10H36L32 21Z" fill="#57B7EB"/>
<path d="M32 3L28 10H36L32 3Z" fill="#84D2F4"/>
<path d="M25 3L21 10H28L25 3Z" fill="#84D2F4"/>
<path d="M32 3H25L28 10L32 3Z" fill="#57B7EB"/>
<path d="M39 3H32L36 10L39 3Z" fill="#57B7EB"/>
<path d="M43 10L39 3L36 10H43Z" fill="#84D2F4"/>
<path d="M21 10L32 20.999L28 10H21Z" fill="#4891D3"/>
<path d="M43 10H36L32 21L43 10Z" fill="#4891D3"/>
<path d="M42.696 40.474L34.5 42.67L32.304 34.474L36.902 32.51L42.098 35.51L42.696 40.474Z" fill="#84D2F4"/>
<path d="M42.098 35.51L36.902 32.51L37.5 37.474L42.098 35.51Z" fill="#84D2F4"/>
<path d="M37.5 37.474L36.902 32.51L32.304 34.474L37.5 37.474Z" fill="#57B7EB"/>
<path d="M42.696 40.474L42.098 35.51L37.5 37.474L42.696 40.474Z" fill="#57B7EB"/>
<path d="M32.304 34.474L34.5 42.669L37.5 37.474L32.304 34.474Z" fill="#4891D3"/>
<path d="M42.696 40.474L37.5 37.474L34.5 42.669V42.67L42.696 40.474Z" fill="#84D2F4"/>
<path d="M34 59C29.5714 59.0012 25.2366 57.7235 21.5167 55.3205C17.7967 52.9174 14.8498 49.4913 13.0302 45.4538C11.2106 41.4162 10.5956 36.9391 11.2592 32.5605C11.9228 28.1819 13.8367 24.0881 16.771 20.771C14.4061 22.8464 12.4921 25.385 11.1476 28.2297C9.80306 31.0744 9.05649 34.1647 8.95408 37.3095C8.85167 40.4543 9.3956 43.5866 10.5522 46.5128C11.7088 49.439 13.4536 52.0967 15.6784 54.3215C17.9033 56.5464 20.561 58.2911 23.4872 59.4478C26.4133 60.6044 29.5457 61.1483 32.6905 61.0459C35.8353 60.9435 38.9256 60.1969 41.7703 58.8524C44.615 57.5078 47.1536 55.5939 49.229 53.229C45.031 56.9532 39.6119 59.0068 34 59V59Z" fill="#FCBC04"/>
<path d="M28.5 52.794C26.6859 51.7456 25.2944 50.0971 24.5655 48.1327C23.8365 46.1682 23.8159 44.011 24.507 42.033C24.407 42.188 24.299 42.333 24.207 42.5C23.0323 44.566 22.7226 47.0128 23.3453 49.3064C23.9679 51.6 25.4726 53.5542 27.5307 54.7425C29.5889 55.9308 32.0336 56.2568 34.3313 55.6494C36.6289 55.0419 38.593 53.5503 39.795 51.5C40.0752 51.0117 40.3095 50.4986 40.495 49.967C39.2313 51.8767 37.2867 53.2324 35.0578 53.7577C32.8289 54.2831 30.4835 53.9384 28.5 52.794Z" fill="#FCBC04"/>
</svg>
