<?xml version="1.0" standalone="no"?>
<!DOCTYPE svg PUBLIC "-//W3C//DTD SVG 20010904//EN"
 "http://www.w3.org/TR/2001/REC-SVG-20010904/DTD/svg10.dtd">
<svg version="1.0" xmlns="http://www.w3.org/2000/svg"
 width="4541.000000pt" height="3544.000000pt" viewBox="0 0 4541.000000 3544.000000"
 preserveAspectRatio="xMidYMid meet">

<g transform="translate(0.000000,3544.000000) scale(0.100000,-0.100000)"
fill="#000000" stroke="none">
<path d="M38797 26703 c-3 -4 -8 -35 -12 -68 -3 -33 -10 -80 -15 -105 -5 -25
-11 -70 -14 -100 -2 -30 -16 -145 -30 -255 -40 -305 -73 -432 -253 -974 -91
-273 -119 -348 -129 -338 -3 2 -11 80 -19 173 -19 224 -25 278 -34 344 -15 99
-1 194 63 425 18 62 81 236 105 290 10 22 22 50 26 63 3 13 23 51 42 85 20 34
58 102 86 152 27 49 57 101 67 115 28 39 51 103 42 112 -12 12 -204 -280 -252
-385 -83 -181 -166 -444 -199 -632 -34 -194 -43 -441 -22 -575 26 -165 20
-263 -33 -493 -64 -280 -119 -444 -211 -627 -46 -91 -127 -254 -180 -364 -88
-183 -276 -539 -296 -560 -15 -17 -21 0 -39 106 -10 57 -30 171 -44 253 -16
87 -29 202 -31 275 -19 568 -28 676 -81 1010 -52 328 -96 487 -259 945 -31 88
-81 232 -112 320 -30 88 -58 169 -62 180 -5 11 -32 81 -61 155 -28 74 -65 160
-82 190 -29 53 -84 120 -99 120 -19 0 -73 -58 -89 -94 -100 -237 -149 -538
-120 -753 21 -165 95 -425 161 -569 16 -36 29 -66 29 -68 0 -4 140 -335 168
-396 77 -171 140 -292 250 -483 199 -342 244 -436 280 -597 16 -74 33 -157 37
-185 3 -27 19 -102 35 -165 26 -103 37 -159 55 -270 6 -40 14 -221 20 -425 1
-77 6 -168 9 -202 4 -39 2 -63 -4 -63 -5 0 -23 27 -40 60 -101 200 -369 626
-497 790 -41 52 -106 137 -146 188 -281 362 -495 620 -570 689 -105 95 -287
212 -487 313 -257 129 -332 169 -453 239 -72 43 -163 97 -201 120 -38 24 -79
47 -90 52 -12 5 -28 13 -36 19 -114 75 -236 121 -247 94 -18 -48 22 -133 111
-233 22 -25 72 -93 111 -151 80 -120 225 -272 328 -343 164 -113 571 -331 742
-396 33 -12 68 -27 77 -32 10 -5 23 -9 30 -9 20 0 188 -55 243 -80 86 -39 215
-130 295 -209 104 -103 153 -164 248 -311 44 -69 95 -145 112 -170 36 -52 149
-227 235 -365 33 -53 70 -110 82 -128 50 -74 94 -158 120 -233 27 -77 28 -84
27 -269 -2 -204 -29 -478 -65 -645 -11 -52 -27 -133 -35 -180 -8 -47 -19 -101
-24 -120 -5 -19 -23 -96 -41 -170 -17 -74 -36 -146 -42 -160 -6 -14 -10 -28
-9 -32 3 -14 -114 -336 -159 -435 -10 -23 -19 -47 -19 -53 0 -5 -4 -18 -10
-28 -20 -36 -139 -351 -165 -437 -45 -146 -225 -688 -235 -707 -6 -10 -10 -27
-10 -38 0 -11 -4 -28 -9 -38 -10 -17 -55 -188 -67 -252 -8 -42 -21 -70 -34
-70 -6 0 -9 71 -9 173 0 94 -5 195 -11 222 -6 28 -27 138 -45 245 -35 201 -47
262 -96 510 -57 281 -78 366 -124 510 -26 80 -51 150 -55 155 -3 6 -14 39 -24
75 -10 36 -22 75 -27 87 -25 66 -33 193 -20 340 15 167 16 234 7 332 -7 71 -8
80 -27 171 -24 115 -111 321 -168 396 -9 12 -23 32 -31 44 -19 28 -99 129
-153 194 -83 99 -290 341 -296 346 -3 3 -30 33 -60 68 -54 63 -83 84 -132 95
-23 6 -28 2 -48 -42 -21 -43 -22 -58 -17 -133 9 -124 40 -273 97 -463 122
-406 206 -628 334 -880 75 -147 133 -224 233 -312 135 -118 236 -227 269 -289
17 -32 43 -99 58 -149 15 -49 37 -122 50 -160 43 -127 75 -268 96 -420 11 -82
24 -166 29 -185 8 -29 14 -84 22 -190 4 -53 -2 -55 -37 -15 -19 22 -117 153
-217 290 -100 138 -204 277 -230 309 -33 42 -55 83 -74 140 -28 84 -131 291
-168 337 -11 15 -41 55 -66 90 -50 70 -142 183 -200 244 -21 22 -75 81 -121
130 -46 50 -147 155 -225 235 -78 80 -197 204 -265 275 -214 224 -244 252
-278 260 -25 5 -35 3 -46 -12 -29 -39 -26 -71 16 -175 140 -352 232 -514 419
-737 135 -161 341 -367 490 -488 23 -20 113 -95 224 -188 26 -22 59 -47 74
-55 133 -74 162 -93 193 -127 20 -21 46 -54 59 -73 23 -34 79 -103 211 -261
103 -124 272 -410 305 -518 18 -58 42 -242 50 -375 12 -190 -33 -412 -127
-631 -5 -11 -31 -72 -57 -135 -88 -207 -414 -871 -533 -1085 -104 -188 -282
-440 -441 -626 -40 -47 -91 -107 -113 -134 -61 -75 -201 -231 -279 -313 -39
-40 -73 -76 -76 -80 -3 -4 -43 -41 -90 -82 -47 -41 -110 -97 -140 -125 -78
-71 -152 -136 -186 -164 -72 -60 -176 -155 -469 -431 -230 -216 -583 -564
-720 -710 -49 -52 -170 -179 -269 -281 -353 -362 -423 -437 -571 -609 -82 -96
-197 -228 -254 -294 -88 -102 -166 -195 -323 -382 -13 -15 -45 -53 -73 -84
-27 -30 -68 -77 -90 -104 -22 -27 -45 -54 -50 -60 -6 -6 -51 -60 -100 -121
-49 -60 -107 -132 -130 -160 -123 -152 -128 -123 -9 58 170 259 177 272 512
927 132 260 142 278 200 360 25 36 226 247 447 470 220 223 438 450 484 505
155 186 274 386 329 550 51 157 74 323 52 389 -22 68 -111 134 -164 120 -23
-5 -50 -52 -71 -124 -4 -14 -16 -43 -25 -65 -10 -22 -24 -58 -30 -80 -16 -53
-46 -106 -100 -182 -25 -34 -81 -114 -125 -177 -125 -181 -249 -347 -309 -414
-30 -33 -83 -105 -119 -159 -128 -195 -196 -298 -210 -315 -15 -19 -37 -24
-37 -9 0 12 87 287 100 316 16 36 78 232 100 313 11 41 34 164 46 242 3 19 23
143 44 275 21 132 42 269 45 305 3 36 12 112 20 170 7 58 19 154 25 214 8 68
24 142 42 195 16 48 32 95 35 106 10 30 100 201 173 326 30 51 136 244 180
328 26 47 61 113 80 146 18 33 75 136 126 228 175 313 164 301 449 547 136
118 157 137 349 315 157 147 240 233 323 335 61 75 149 196 163 225 3 5 22 36
43 68 40 60 171 313 198 382 19 47 74 195 119 315 17 47 35 94 40 105 4 11 27
72 50 135 22 63 45 123 50 132 6 10 10 27 10 38 0 11 4 20 9 20 5 0 11 12 14
28 2 15 16 70 30 122 14 52 29 120 33 150 l7 55 -64 -70 c-148 -162 -209 -221
-304 -293 -279 -210 -495 -489 -821 -1057 -38 -66 -71 -122 -74 -125 -9 -9
-127 -252 -160 -330 -17 -41 -35 -84 -40 -95 -16 -36 -50 -141 -66 -201 -20
-78 -88 -216 -170 -344 -107 -168 -166 -268 -229 -385 -32 -60 -61 -114 -65
-120 -5 -5 -34 -59 -65 -120 -32 -60 -61 -114 -65 -120 -7 -9 -110 -198 -185
-340 -59 -112 -107 -200 -115 -210 -4 -5 -22 -50 -39 -100 -18 -49 -35 -97
-38 -105 -8 -18 -7 -18 -17 -57 -4 -20 -14 -33 -23 -33 -14 0 -15 32 -9 288 8
346 9 1367 2 1402 -11 47 -8 228 4 287 22 108 91 418 105 468 67 245 79 524
32 745 -32 148 -57 230 -125 405 -80 205 -101 253 -162 370 -98 188 -140 257
-230 375 -102 133 -122 137 -99 22 17 -83 17 -344 0 -577 -6 -93 -15 -217 -19
-275 -14 -204 6 -556 40 -705 61 -273 125 -442 240 -636 78 -132 127 -274 142
-409 16 -152 24 -878 12 -1185 -5 -136 -11 -323 -21 -685 -9 -322 -16 -455
-25 -464 -11 -12 -30 2 -30 22 -1 18 -83 293 -212 707 -30 97 -104 299 -132
360 -8 17 -26 59 -41 95 -14 36 -79 170 -143 298 l-117 234 0 231 c-1 128 -4
250 -9 272 -13 66 -57 195 -93 275 -51 111 -245 421 -362 580 -27 36 -83 117
-126 180 -153 225 -173 248 -226 256 -52 8 -69 -11 -59 -66 12 -73 99 -398
132 -495 60 -179 124 -350 149 -394 4 -9 37 -74 73 -146 35 -71 87 -168 115
-215 29 -47 81 -143 118 -215 72 -141 139 -256 157 -268 6 -4 25 -6 41 -5 29
3 32 -1 74 -87 24 -49 84 -182 133 -295 97 -222 103 -237 141 -320 13 -31 48
-118 76 -195 28 -77 56 -149 60 -160 28 -63 122 -377 157 -525 37 -153 64
-331 64 -413 0 -73 -39 -287 -110 -607 -4 -19 -17 -69 -28 -110 -11 -41 -35
-129 -52 -195 -17 -66 -35 -126 -39 -135 -4 -8 -14 -41 -21 -73 -7 -32 -17
-60 -22 -63 -4 -3 -8 -14 -8 -25 0 -10 -4 -27 -9 -37 -5 -9 -19 -48 -31 -87
-37 -119 -193 -535 -243 -645 -158 -353 -415 -830 -448 -830 -14 0 -18 59 -25
350 -3 157 -7 287 -9 290 -2 3 -6 41 -9 85 -4 44 -9 87 -11 95 -2 8 -6 47 -10
85 -3 39 -8 93 -11 120 -3 28 -7 66 -9 85 -7 70 -47 397 -57 463 -16 110 -99
196 -147 153 -31 -29 -86 -189 -125 -366 -31 -145 -45 -285 -44 -460 1 -251
21 -395 137 -960 22 -107 43 -211 47 -230 15 -73 5 -132 -32 -205 -44 -84
-125 -218 -207 -340 -52 -78 -261 -361 -277 -375 -3 -3 -24 -30 -45 -60 -22
-30 -45 -62 -52 -70 -61 -76 -215 -273 -238 -305 -79 -107 -175 -212 -310
-340 -201 -190 -270 -275 -225 -275 5 0 31 19 59 42 27 24 80 68 117 98 168
134 335 316 527 576 135 182 217 293 277 378 87 122 248 337 287 384 20 24 48
60 63 80 24 34 72 86 276 302 39 41 80 86 92 100 159 193 171 206 302 321 41
36 82 68 90 71 16 6 164 114 190 139 8 8 40 33 70 55 30 23 66 51 79 63 13 11
27 21 31 21 3 0 15 8 26 18 96 88 616 309 854 364 96 21 270 30 345 17 28 -4
122 -20 210 -33 166 -27 285 -49 345 -64 19 -5 62 -15 95 -22 77 -17 192 -70
325 -150 257 -154 451 -239 710 -310 140 -39 485 -91 760 -115 36 -3 112 -10
170 -16 330 -35 378 -36 430 -9 25 13 55 30 68 38 l23 15 -38 31 c-20 17 -76
48 -123 69 -47 20 -94 41 -105 47 -63 29 -137 60 -143 60 -4 0 -90 35 -192 79
-211 89 -354 145 -490 190 -52 18 -104 36 -115 41 -17 7 -100 28 -280 70 -270
63 -731 88 -850 45 -83 -30 -121 -33 -198 -19 -40 8 -108 19 -152 24 -376 49
-571 81 -567 95 1 6 15 14 30 18 46 14 95 28 137 38 22 5 83 23 135 38 52 16
154 46 225 67 72 20 166 51 210 67 44 16 94 33 110 37 34 9 159 51 325 110
318 113 795 263 918 289 29 6 157 12 285 13 128 0 257 1 287 2 113 0 408 -16
495 -28 50 -7 137 -14 194 -15 128 -3 199 -25 343 -108 168 -96 180 -101 403
-165 39 -11 84 -24 100 -28 285 -83 389 -95 810 -95 363 0 620 12 655 30 14 7
39 15 55 19 84 20 135 39 135 50 0 7 -24 31 -54 53 -56 41 -93 53 -326 107
-58 13 -136 32 -175 41 -38 10 -106 23 -150 31 -44 7 -168 26 -275 44 -355 57
-562 69 -1115 67 -269 -1 -530 2 -580 6 -49 3 -173 11 -275 17 -102 6 -210 13
-240 16 -56 5 -192 6 -374 1 -124 -3 -135 11 -34 46 78 27 148 53 238 87 30
12 96 37 145 55 50 19 146 57 215 85 141 58 180 74 400 154 85 32 169 63 185
70 17 7 48 20 70 29 22 8 86 34 143 56 151 61 222 64 367 17 165 -55 314 -78
615 -96 96 -6 213 -13 260 -16 92 -7 727 -7 738 0 4 2 75 7 157 11 262 11 462
24 485 30 8 2 78 7 155 10 77 3 156 11 175 17 46 15 110 48 110 58 0 9 -97 50
-119 50 -19 0 -102 21 -201 50 -136 40 -250 60 -395 70 -158 11 -820 15 -940
6 -38 -3 -133 -8 -210 -11 -77 -3 -158 -8 -180 -10 -22 -2 -85 -6 -140 -10
-149 -9 -212 -14 -292 -21 -52 -4 -73 -3 -73 5 0 6 8 14 18 17 9 3 26 10 37
14 41 18 244 93 370 136 308 107 475 179 603 261 29 18 54 33 56 33 10 0 181
116 341 232 81 58 326 298 400 393 22 27 45 55 50 61 6 6 30 41 54 77 34 53
44 78 48 124 7 72 -8 88 -73 85 -57 -2 -370 -120 -582 -218 -40 -19 -75 -34
-78 -34 -14 0 -565 -281 -669 -342 -156 -90 -297 -219 -573 -525 -288 -321
-384 -385 -797 -538 -55 -21 -127 -48 -160 -60 -33 -13 -123 -44 -200 -70 -77
-26 -144 -51 -150 -55 -5 -4 -21 -11 -35 -15 -14 -4 -43 -16 -65 -26 -35 -16
-238 -96 -520 -206 -49 -19 -139 -52 -200 -74 -60 -22 -119 -44 -130 -49 -118
-53 -468 -161 -481 -147 -10 9 6 29 131 163 66 71 149 160 185 199 35 38 110
117 165 175 55 58 129 137 164 175 35 39 121 131 191 205 136 144 168 179 233
250 23 25 96 104 163 175 l122 130 118 38 c304 98 599 222 789 332 50 29 218
142 305 204 25 17 61 43 80 56 42 30 91 66 288 210 130 95 154 117 178 162 15
29 25 55 23 57 -10 9 -102 36 -124 36 -45 0 -446 -142 -655 -232 -166 -72
-453 -215 -523 -262 -38 -25 -71 -46 -74 -46 -7 0 -157 -127 -208 -176 -73
-70 -153 -171 -239 -301 -96 -146 -197 -264 -412 -484 -83 -85 -200 -208 -260
-274 -59 -66 -126 -140 -148 -165 -67 -72 -309 -332 -341 -365 -16 -17 -61
-66 -100 -110 -81 -90 -156 -163 -194 -187 -14 -9 -84 -35 -156 -58 -71 -23
-139 -45 -150 -51 -11 -5 -72 -25 -135 -44 -63 -19 -124 -39 -135 -44 -11 -4
-121 -41 -245 -81 -434 -140 -886 -297 -1060 -369 -164 -68 -363 -163 -455
-216 -73 -43 -393 -273 -433 -312 -7 -7 -21 -13 -29 -13 -14 0 -13 3 3 23 10
12 21 24 24 27 3 3 53 61 110 130 58 69 141 168 185 221 44 52 112 133 150
179 39 45 109 126 158 179 48 53 163 182 256 286 93 105 220 243 282 307 63
65 182 188 264 275 226 236 378 388 504 504 62 57 155 144 205 193 165 160
370 352 441 413 39 34 84 75 100 93 17 18 82 76 145 128 63 53 139 117 168
144 29 26 94 75 144 108 50 34 119 81 152 105 66 47 136 85 201 108 141 51
240 90 310 122 44 20 100 46 125 57 25 12 92 43 150 70 58 27 114 53 125 58
11 5 85 36 165 69 550 226 979 348 1395 396 28 3 64 8 80 10 17 3 59 7 95 10
198 15 302 28 625 79 202 32 530 92 640 117 118 27 177 49 313 116 112 56 162
97 162 133 0 27 -45 65 -94 80 -22 7 -52 16 -66 21 -35 11 -250 56 -335 70
-68 10 -344 14 -388 4 -12 -2 -49 -7 -82 -10 -88 -8 -360 -75 -490 -120 -159
-55 -218 -80 -445 -189 -166 -79 -238 -122 -335 -199 -145 -116 -219 -150
-585 -267 -203 -65 -301 -103 -485 -190 -60 -28 -119 -55 -130 -60 -11 -5 -50
-23 -87 -39 -37 -17 -70 -31 -73 -31 -4 0 -30 -11 -58 -24 -29 -13 -63 -27
-77 -31 -14 -4 -54 -21 -90 -38 -36 -16 -96 -42 -135 -58 -38 -15 -122 -50
-185 -78 -63 -28 -115 -51 -117 -51 -12 0 2 28 26 49 105 95 183 165 231 206
30 27 127 116 215 200 166 157 236 222 319 296 48 43 124 114 351 328 130 122
136 128 240 212 44 35 85 69 91 74 6 6 28 24 49 40 21 17 52 42 69 56 25 21
98 80 221 176 6 5 42 33 80 62 231 180 560 444 563 453 2 4 8 8 14 8 5 0 28
15 51 33 101 80 296 185 458 246 199 75 362 88 544 43 44 -11 107 -25 140 -32
64 -13 173 -49 380 -128 72 -27 148 -55 170 -61 83 -26 128 -54 204 -126 43
-41 81 -75 84 -75 4 0 44 -24 89 -53 161 -103 414 -251 528 -307 116 -58 253
-120 264 -120 4 0 25 -9 49 -20 167 -77 456 -135 787 -158 122 -9 126 -8 163
15 43 27 49 59 15 90 -18 16 -489 253 -503 253 -2 0 -83 38 -180 85 -97 47
-198 95 -223 106 -26 12 -81 37 -122 56 -41 19 -95 43 -120 53 -25 10 -76 33
-115 51 -74 34 -107 45 -276 89 -129 35 -235 50 -343 50 -74 0 -99 6 -247 56
-90 31 -193 65 -229 76 -36 11 -92 28 -125 38 -129 40 -309 107 -313 118 -1 5
12 13 30 17 18 3 62 12 98 20 36 7 97 18 135 24 39 7 138 23 220 36 121 20
200 25 406 30 229 4 262 3 321 -14 65 -19 200 -81 228 -106 31 -27 209 -115
271 -134 90 -27 214 -48 354 -62 66 -6 136 -13 155 -15 96 -11 557 -9 730 3
200 13 381 42 435 69 16 9 42 30 57 48 l27 33 -29 35 c-17 20 -49 45 -72 55
-59 27 -241 103 -368 153 -58 23 -118 48 -135 55 -130 59 -280 108 -414 136
-91 19 -125 21 -265 16 -113 -3 -187 -11 -249 -26 -88 -21 -229 -72 -303 -109
-69 -34 -187 -71 -262 -82 -40 -5 -195 -10 -345 -10 -281 1 -355 -5 -727 -56
-102 -14 -284 -38 -405 -55 -284 -38 -296 -41 -506 -110 -162 -53 -265 -93
-342 -134 -150 -79 -216 -117 -297 -172 -140 -95 -142 -97 -315 -243 -88 -75
-223 -187 -299 -250 -208 -171 -293 -245 -371 -319 -38 -37 -151 -137 -250
-221 -99 -85 -220 -193 -270 -241 -205 -197 -318 -299 -334 -299 -13 0 -15 16
-2 24 10 7 99 155 159 267 70 129 232 459 232 472 0 3 16 40 35 81 19 42 35
79 35 82 0 3 11 29 23 57 13 29 43 104 66 167 23 63 47 126 53 140 30 71 63
162 98 275 15 50 37 117 48 150 11 33 34 112 52 175 71 254 129 334 614 845
200 211 259 270 382 386 85 79 315 272 374 312 14 9 59 42 100 72 166 122 392
267 438 280 55 15 100 23 195 31 38 3 83 7 100 9 18 3 55 7 82 10 172 17 365
53 407 76 10 5 25 9 33 9 15 0 282 97 460 168 218 86 625 252 642 261 10 5 43
22 73 36 119 59 289 156 317 182 17 16 38 40 47 54 15 24 15 28 -6 59 -13 18
-44 51 -70 73 -57 48 -101 57 -233 51 -177 -9 -294 -32 -518 -104 -312 -99
-453 -162 -721 -325 -18 -11 -78 -47 -132 -79 -54 -33 -113 -70 -130 -83 -17
-13 -34 -23 -37 -23 -5 0 -43 -23 -292 -180 -155 -97 -237 -154 -405 -280 -85
-64 -177 -132 -205 -150 -27 -19 -52 -37 -55 -40 -11 -14 -40 -19 -40 -7 0 30
287 384 405 500 21 20 128 72 172 83 14 4 44 17 66 30 23 13 51 28 62 33 26
11 140 87 173 115 111 92 250 243 367 396 28 36 56 71 63 79 17 17 209 308
252 381 69 116 188 357 190 386 4 56 0 70 -31 102 -50 51 -77 45 -237 -50
-317 -189 -410 -278 -782 -743 -92 -116 -152 -212 -229 -370 -40 -82 -82 -167
-93 -187 -10 -21 -30 -68 -42 -105 -13 -38 -40 -102 -60 -145 -20 -42 -40 -97
-45 -122 -6 -35 -22 -61 -68 -113 -32 -37 -102 -120 -155 -183 -118 -141 -250
-271 -463 -455 -209 -180 -342 -309 -440 -424 -11 -13 -54 -63 -95 -110 -41
-48 -91 -106 -110 -130 -19 -25 -49 -60 -66 -80 -17 -20 -42 -49 -55 -65 -63
-76 -98 -110 -99 -96 0 16 24 95 46 145 6 17 17 46 22 65 16 54 96 282 206
586 40 113 113 296 130 329 9 17 16 33 16 37 0 25 257 429 419 658 22 30 100
147 175 260 74 113 158 237 186 275 28 39 67 94 88 124 20 29 46 66 57 81 11
15 34 47 50 71 26 37 178 244 202 274 4 6 23 30 41 55 69 95 161 219 247 333
50 66 104 138 120 161 17 23 47 62 68 87 20 24 103 125 183 224 81 99 155 189
165 200 9 11 61 72 115 135 54 63 101 117 104 120 4 3 40 43 80 90 41 47 77
87 81 90 3 3 48 52 99 110 51 58 146 161 210 230 65 69 145 156 178 194 34 38
74 77 89 87 16 10 100 42 188 72 365 125 546 203 975 420 440 223 487 248 785
415 54 30 229 162 302 228 114 103 310 348 300 377 -2 6 -39 21 -83 34 -68 21
-99 24 -224 24 -151 0 -321 -18 -437 -46 -200 -48 -286 -72 -463 -132 -183
-61 -321 -120 -415 -177 -22 -14 -56 -34 -75 -44 -50 -29 -203 -153 -283 -231
-150 -145 -353 -398 -437 -546 -38 -67 -66 -108 -126 -187 -22 -29 -84 -114
-137 -188 -173 -243 -306 -403 -498 -604 -169 -178 -479 -540 -654 -766 -178
-229 -275 -357 -351 -460 -43 -58 -110 -148 -149 -200 -39 -52 -78 -106 -88
-120 -22 -32 -84 -119 -232 -325 -66 -91 -127 -176 -135 -189 -8 -12 -60 -84
-115 -160 -55 -76 -107 -147 -115 -159 -67 -100 -308 -448 -326 -469 -12 -15
-24 -33 -27 -40 -2 -7 -8 -10 -12 -6 -6 6 14 83 35 133 11 26 72 218 100 315
31 109 35 124 65 240 15 58 33 125 41 150 16 52 49 225 65 343 34 256 39 486
24 1057 -8 312 -3 370 42 480 14 36 30 70 33 75 4 6 81 154 170 330 90 176
178 346 196 378 19 32 34 60 34 63 0 11 97 164 135 212 47 59 218 213 464 417
197 163 627 577 753 725 153 181 260 343 293 445 30 92 73 152 129 182 18 10
17 12 -12 27 -83 43 -187 10 -452 -145 -124 -73 -376 -302 -488 -444 -38 -49
-175 -250 -183 -270 -2 -5 -34 -60 -70 -121 -37 -60 -82 -138 -100 -173 -19
-34 -39 -70 -44 -79 -6 -9 -29 -48 -52 -87 -108 -183 -183 -295 -198 -295 -14
0 3 94 40 226 39 140 56 193 65 209 4 6 13 30 20 55 7 25 17 50 20 55 4 6 13
28 20 50 26 84 124 324 167 410 73 147 139 315 173 440 41 150 50 193 65 285
9 58 20 125 26 148 5 24 12 76 15 115 3 40 7 81 9 92 29 146 23 529 -8 478z
m-2073 -449 c41 -83 89 -181 105 -218 17 -36 44 -95 61 -131 139 -304 281
-696 345 -960 19 -77 39 -160 45 -185 26 -103 50 -287 56 -422 8 -168 -2 -321
-19 -315 -20 6 -103 230 -224 602 -36 110 -69 209 -73 220 -5 11 -34 96 -64
188 -57 175 -101 299 -141 402 -13 33 -33 92 -45 132 -19 66 -59 135 -60 106
0 -23 195 -618 293 -888 21 -60 67 -191 102 -290 34 -99 65 -187 68 -195 23
-57 119 -362 124 -393 3 -20 10 -40 14 -43 5 -3 9 -12 9 -20 0 -27 -16 -14
-39 34 -21 43 -222 409 -263 477 -40 67 -125 254 -143 315 -4 14 -21 54 -37
90 -17 36 -49 108 -73 160 -24 52 -54 120 -68 150 -106 233 -162 394 -176 508
-13 96 -5 298 15 417 13 78 23 132 64 330 13 62 30 99 40 89 5 -5 42 -77 84
-160z m2906 -574 c0 -87 -175 -415 -292 -547 -18 -20 -53 -60 -77 -88 -25 -27
-77 -81 -115 -118 -74 -72 -468 -413 -527 -457 -18 -14 -54 -43 -79 -66 -25
-22 -63 -57 -85 -76 -74 -67 -88 -78 -93 -73 -3 3 19 53 48 112 29 60 58 119
65 133 62 129 229 408 319 535 238 334 467 525 796 662 30 13 40 8 40 -17z
m2585 -545 c77 -9 173 -16 213 -16 42 0 72 -4 72 -10 0 -16 -148 -159 -215
-209 -51 -38 -236 -169 -293 -208 -9 -6 -39 -27 -67 -46 -165 -114 -598 -361
-937 -534 -297 -151 -694 -309 -785 -312 -23 0 -14 26 20 56 137 123 252 217
368 300 53 38 116 86 140 106 24 20 78 64 119 97 41 33 111 93 155 135 61 58
77 78 68 87 -9 9 -18 8 -39 -7 -14 -10 -36 -26 -48 -34 -12 -8 -66 -49 -121
-91 -93 -70 -143 -110 -220 -173 -16 -14 -47 -37 -67 -53 -20 -15 -89 -68
-153 -118 -179 -138 -224 -170 -232 -162 -7 7 12 38 106 169 220 307 468 582
606 670 225 144 486 244 845 322 239 52 257 53 465 31z m-7150 -530 c142 -70
304 -145 311 -145 9 0 312 -154 403 -205 60 -33 280 -180 291 -194 3 -3 34
-31 70 -61 134 -112 340 -352 340 -395 0 -12 -6 -15 -21 -10 -12 4 -51 15 -87
26 -86 25 -188 63 -288 109 -45 21 -90 40 -100 44 -33 10 -249 127 -349 189
-247 151 -386 260 -594 461 -111 109 -230 273 -215 297 3 5 29 -4 57 -21 29
-17 111 -60 182 -95z m343 -2274 c101 -82 283 -264 342 -341 19 -25 41 -51 48
-59 23 -23 108 -158 162 -255 21 -38 96 -226 119 -296 50 -158 63 -479 26
-647 -12 -53 -28 -23 -141 272 -115 301 -138 358 -142 347 -4 -13 46 -166 113
-347 69 -185 145 -414 145 -437 0 -10 -3 -18 -8 -18 -12 0 -205 201 -251 261
-136 183 -334 626 -422 944 -49 175 -92 369 -104 465 -13 102 -8 190 11 190 3
0 49 -36 102 -79z m4266 -363 c16 -61 -2 -130 -74 -278 -27 -57 -148 -257
-193 -320 -121 -168 -146 -201 -201 -270 -107 -132 -117 -143 -266 -290 -152
-152 -229 -214 -333 -267 -92 -48 -201 -59 -166 -17 7 9 18 25 24 35 5 11 76
117 156 237 130 194 189 291 189 309 0 3 -10 -9 -23 -28 -80 -117 -208 -301
-256 -369 -22 -30 -65 -93 -97 -140 -176 -258 -202 -264 -106 -25 91 225 342
627 510 817 145 164 214 237 291 310 200 188 402 315 507 317 25 1 33 -4 38
-21z m-5026 -595 c307 -275 677 -641 817 -807 28 -32 57 -66 66 -75 75 -81
211 -283 260 -385 62 -131 52 -149 -31 -58 -29 31 -121 128 -204 216 -83 87
-153 161 -156 165 -3 3 -14 13 -24 21 -11 8 16 -37 59 -100 52 -75 132 -170
232 -275 84 -87 149 -163 144 -168 -4 -4 -56 24 -114 62 -131 87 -143 96 -243
196 -44 44 -123 121 -175 170 -78 75 -166 173 -288 320 -32 39 -106 141 -119
164 -8 13 -23 40 -34 60 -36 62 -142 261 -213 396 -37 72 -72 134 -76 140 -10
10 -12 45 -3 45 3 0 49 -39 102 -87z m6012 -228 c37 -19 60 -62 60 -113 0 -30
-7 -45 -32 -69 -26 -25 -609 -323 -632 -323 -3 0 -35 -13 -70 -30 -391 -178
-811 -313 -1061 -340 -130 -14 -267 -10 -272 7 -5 14 106 68 537 265 25 11 84
38 132 59 48 21 95 43 105 48 10 6 92 46 183 90 158 76 254 131 170 98 -19 -8
-98 -44 -175 -80 -139 -64 -475 -219 -590 -272 -90 -41 -158 -65 -164 -59 -14
15 89 88 292 208 173 102 575 289 812 378 122 46 361 116 450 132 110 19 219
20 255 1z m-8413 -1057 c101 -135 215 -342 303 -553 46 -111 88 -255 120 -415
66 -330 46 -739 -52 -1060 -10 -33 -19 -45 -33 -45 -16 0 -23 13 -38 70 -9 39
-21 95 -27 125 -5 30 -20 120 -34 200 -13 80 -27 170 -31 200 -4 30 -20 150
-36 265 -16 116 -32 233 -35 260 -6 60 -11 75 -22 75 -5 0 -5 -28 -1 -62 9
-81 17 -155 29 -298 6 -63 15 -146 20 -185 5 -38 12 -99 15 -135 10 -127 26
-275 30 -290 2 -8 6 -52 10 -97 8 -113 -9 -109 -68 15 -107 226 -167 423 -187
619 -10 96 -13 551 -6 913 2 113 1 246 -3 295 -5 80 -4 155 4 155 1 0 20 -24
42 -52z m2793 -413 c0 -2 -6 -28 -14 -57 -8 -29 -24 -88 -35 -130 -12 -43 -33
-108 -47 -145 -14 -38 -35 -97 -48 -133 -78 -219 -208 -490 -342 -712 -57 -95
-75 -121 -198 -291 -81 -112 -204 -253 -323 -368 -150 -147 -370 -318 -392
-305 -8 5 92 162 119 186 8 7 122 159 142 190 9 14 51 70 92 125 42 55 80 105
84 110 59 79 161 215 172 231 8 12 45 64 81 115 69 98 100 159 54 104 -14 -16
-43 -50 -64 -75 -21 -25 -61 -74 -89 -110 -29 -36 -55 -69 -60 -75 -4 -5 -41
-53 -82 -105 -117 -150 -263 -332 -288 -360 -13 -14 -37 -44 -55 -67 -33 -44
-57 -55 -57 -27 0 25 67 219 106 309 93 213 218 437 355 640 100 147 117 172
189 264 36 45 73 95 82 108 9 14 20 29 25 32 4 3 33 35 63 71 157 188 353 379
465 453 36 24 65 34 65 22z m-3979 -1042 c17 -27 93 -133 168 -236 503 -696
484 -668 518 -771 22 -68 27 -109 35 -261 5 -99 9 -185 10 -191 5 -44 -68
-116 -103 -102 -18 7 -80 130 -217 428 -13 30 -44 97 -68 148 -24 52 -44 96
-44 98 0 2 -9 23 -19 47 -62 135 -84 187 -144 332 -85 207 -122 308 -158 424
-44 141 -36 170 22 84z m10199 22 c92 -11 297 -61 365 -90 17 -7 57 -23 90
-35 143 -55 313 -145 443 -237 64 -45 69 -57 30 -66 -13 -2 -57 -14 -98 -25
-74 -20 -142 -33 -190 -37 -14 -1 -59 -5 -100 -9 -163 -14 -201 -16 -375 -16
-278 0 -565 21 -660 50 -16 5 -50 11 -75 15 -85 12 -265 77 -374 134 -61 32
-112 63 -114 70 -3 10 90 11 429 8 462 -6 478 3 45 23 -142 7 -266 14 -275 15
-9 2 -22 4 -28 4 -63 4 117 101 270 145 79 23 207 50 282 59 43 5 270 0 335
-8z m-1265 -681 c98 -26 189 -56 200 -65 5 -5 17 -9 27 -9 10 0 26 -4 36 -9 9
-5 76 -33 147 -62 72 -28 234 -103 360 -165 218 -108 286 -143 415 -216 59
-34 108 -60 210 -115 96 -52 160 -94 160 -104 0 -11 -18 -9 -205 26 -71 14
-202 36 -290 51 -88 14 -194 35 -235 46 -135 36 -436 155 -555 219 -22 12
-109 57 -192 100 -137 70 -237 137 -378 254 -28 23 -28 25 -8 25 12 0 43 -11
70 -24 169 -85 305 -144 421 -182 248 -82 204 -55 -268 162 -132 61 -143 67
-148 83 -4 12 10 13 84 7 49 -3 116 -14 149 -22z m-953 -868 c132 -12 379
-107 386 -147 2 -11 -14 -26 -49 -44 -29 -15 -60 -31 -68 -36 -179 -96 -712
-210 -1281 -273 -56 -7 -102 -12 -210 -25 -47 -6 -112 -13 -145 -16 -85 -8
-264 -30 -315 -40 -68 -12 -119 -14 -124 -6 -7 10 70 83 149 141 98 72 274
172 400 228 251 110 509 179 810 216 89 11 346 12 447 2z m-1254 -1072 c12 -4
22 -11 22 -16 0 -23 -164 -171 -336 -301 -300 -229 -719 -455 -1032 -556 -111
-36 -259 -67 -269 -57 -12 11 21 77 69 136 51 64 149 154 238 218 25 18 65 47
90 66 92 67 302 187 471 270 261 127 478 207 624 231 100 16 96 16 123 9z
m1642 -227 c0 -36 -172 -275 -283 -394 -84 -90 -270 -244 -399 -330 -60 -40
-111 -73 -114 -73 -2 0 -46 -24 -97 -53 -93 -54 -224 -119 -352 -175 -176 -77
-697 -266 -717 -260 -13 5 27 35 92 70 79 43 145 80 155 88 6 5 96 55 200 113
243 133 266 146 408 229 65 37 120 68 122 68 8 0 163 105 196 134 53 45 110
93 139 115 14 11 22 23 18 26 -8 8 -45 -9 -123 -55 -27 -16 -77 -46 -110 -66
-104 -61 -127 -76 -240 -149 -60 -39 -141 -90 -180 -114 -38 -23 -97 -60 -130
-81 -33 -21 -85 -54 -115 -72 -54 -32 -93 -58 -141 -89 -93 -61 -401 -239
-414 -239 -22 0 36 105 101 180 95 110 127 144 198 213 69 66 156 137 301 244
63 47 224 152 305 201 97 58 424 225 520 266 36 16 79 34 95 41 94 41 242 97
325 123 52 17 109 35 125 41 46 15 115 14 115 -2z m-6045 -624 c4 -10 9 -54
12 -98 11 -157 -56 -320 -234 -574 -21 -30 -63 -84 -93 -120 -31 -36 -65 -79
-77 -94 -81 -105 -543 -581 -618 -636 -27 -21 -78 -54 -111 -74 -106 -64 -108
-51 -18 81 100 148 93 138 504 692 10 14 86 115 167 225 191 256 292 396 377
518 37 53 71 97 75 97 5 0 12 -8 16 -17z m5539 -708 c165 -3 302 -8 306 -10 3
-2 40 -6 81 -9 220 -16 624 -94 624 -121 0 -5 -11 -11 -25 -13 -14 -1 -47 -6
-75 -12 -27 -5 -131 -16 -230 -25 -99 -8 -198 -17 -220 -20 -241 -29 -1049
-27 -1396 4 -166 15 -586 82 -612 98 -18 11 11 23 81 33 121 17 420 48 522 55
52 3 151 10 220 14 69 5 186 10 260 11 74 1 136 3 138 5 2 2 9 2 15 0 7 -2
147 -6 311 -10z m-7712 -772 c15 -79 67 -363 83 -458 2 -11 11 -60 20 -110 9
-49 27 -178 40 -285 20 -165 23 -229 20 -420 -4 -287 -24 -389 -99 -517 -34
-58 -43 -64 -51 -30 -2 12 -11 51 -19 87 -33 148 -115 602 -126 690 -49 430
-47 725 7 910 44 152 86 250 101 236 2 -3 13 -49 24 -103z m6453 -48 c111 -9
292 -33 338 -46 21 -6 84 -14 140 -19 176 -15 357 -39 451 -61 307 -68 474
-124 489 -162 10 -27 -10 -37 -109 -53 -184 -30 -677 -29 -1009 2 -66 6 -342
51 -430 69 -157 33 -338 87 -355 106 -3 3 -20 11 -38 18 -50 21 -116 71 -105
82 5 5 33 3 68 -5 33 -8 94 -22 135 -31 41 -10 95 -23 120 -31 109 -32 364
-94 387 -94 1 0 3 4 3 9 0 10 -80 39 -205 75 -102 30 -116 34 -240 71 -124 37
-147 47 -138 56 23 23 293 30 498 14z m-2696 -800 c133 -14 349 -57 383 -76
10 -5 23 -9 30 -9 23 0 152 -42 266 -86 63 -24 121 -44 129 -44 8 0 11 -4 8
-10 -3 -5 1 -10 9 -10 17 0 148 -59 291 -132 195 -99 291 -145 348 -168 31
-12 57 -26 57 -30 0 -20 -472 -25 -625 -6 -16 2 -61 7 -100 11 -79 7 -403 59
-480 77 -322 72 -604 182 -794 310 -42 28 -78 54 -81 57 -3 4 -22 20 -42 35
-39 29 -48 51 -25 59 18 6 310 -72 382 -103 49 -21 238 -81 242 -76 2 2 -6 7
-19 11 -13 4 -36 13 -53 20 -16 7 -52 21 -80 30 -27 9 -59 21 -70 26 -25 10
-98 38 -198 76 -43 17 -78 34 -78 39 1 24 276 23 500 -1z"/>
<path d="M6250 26431 c-22 -94 1 -366 60 -701 32 -183 40 -222 55 -270 8 -25
26 -83 40 -130 39 -128 73 -213 136 -340 65 -132 109 -226 109 -234 0 -3 11
-29 24 -58 82 -180 146 -355 220 -598 42 -139 52 -190 38 -190 -6 0 -40 42
-75 93 -68 99 -105 158 -276 449 -232 392 -380 580 -586 746 -38 31 -91 73
-117 94 -26 21 -49 38 -53 38 -4 0 -25 13 -48 29 -72 48 -189 109 -267 137
-86 31 -144 32 -198 5 -35 -18 -35 -19 -12 -26 31 -10 94 -75 107 -111 58
-154 84 -208 113 -234 3 -3 19 -25 35 -50 130 -195 521 -588 856 -861 208
-170 473 -394 515 -436 28 -28 70 -79 94 -114 45 -66 170 -286 170 -300 0 -4
3 -9 8 -11 4 -1 22 -32 40 -68 17 -36 46 -90 63 -120 17 -30 79 -147 137 -260
58 -113 109 -210 113 -215 14 -18 37 -98 45 -155 4 -30 8 -284 9 -565 1 -280
6 -541 10 -580 13 -128 73 -479 94 -550 11 -38 27 -95 36 -125 9 -30 20 -71
25 -90 17 -71 51 -185 60 -202 6 -10 10 -25 10 -34 0 -9 6 -30 14 -47 21 -50
76 -224 76 -241 0 -9 5 -16 10 -16 6 0 10 -10 10 -23 0 -13 4 -27 9 -32 4 -6
11 -23 15 -40 l6 -30 -21 25 c-12 14 -85 113 -162 220 -77 107 -144 197 -149
198 -4 2 -8 9 -8 14 0 6 -38 61 -83 122 -46 61 -133 178 -193 260 -118 160
-442 593 -539 720 -61 80 -127 165 -263 339 -131 168 -434 534 -461 557 -3 3
-35 39 -71 80 -83 96 -155 174 -307 330 -67 69 -131 136 -143 150 -12 14 -38
43 -59 65 -44 47 -229 274 -284 348 -21 29 -70 95 -108 147 -38 52 -92 124
-119 160 -27 36 -49 68 -50 72 -1 21 -187 276 -265 363 -80 89 -230 237 -293
288 -176 143 -374 253 -563 313 -63 20 -123 40 -134 45 -18 7 -54 18 -250 74
-169 48 -418 83 -615 84 -140 1 -162 -1 -234 -24 -43 -14 -85 -25 -92 -25 -21
0 -17 -10 23 -70 70 -106 174 -224 285 -326 70 -64 269 -204 338 -237 8 -4 65
-35 125 -68 61 -33 151 -79 200 -103 50 -24 185 -91 302 -149 117 -58 245
-120 285 -138 40 -17 96 -43 123 -56 180 -88 504 -211 779 -295 l108 -33 173
-180 c95 -99 187 -196 205 -215 18 -19 64 -69 104 -110 39 -42 109 -118 156
-170 47 -52 121 -132 164 -179 43 -47 119 -133 169 -191 115 -135 174 -205
213 -249 17 -20 39 -47 50 -60 10 -13 35 -42 55 -65 20 -22 54 -63 74 -91 21
-27 41 -52 44 -55 10 -8 206 -259 328 -420 60 -80 131 -174 159 -209 74 -95
158 -209 205 -276 23 -33 52 -71 64 -85 12 -14 37 -47 55 -75 19 -27 36 -52
40 -55 6 -5 60 -82 175 -250 134 -196 189 -275 222 -320 18 -25 50 -70 71
-100 21 -30 63 -92 95 -136 66 -96 187 -295 208 -341 8 -18 17 -33 21 -33 5 0
8 -6 8 -13 0 -10 46 -128 79 -202 14 -29 58 -154 73 -202 7 -24 16 -43 20 -43
5 0 8 -6 8 -12 0 -14 75 -221 91 -250 5 -10 9 -25 9 -33 0 -8 5 -24 10 -35 6
-11 15 -29 20 -40 6 -11 10 -29 10 -39 0 -11 5 -23 10 -26 6 -3 10 -13 10 -21
0 -8 9 -33 19 -57 32 -69 50 -132 39 -136 -5 -1 -10 -1 -12 0 -6 10 -172 206
-186 220 -8 9 -42 47 -75 84 -33 38 -64 73 -70 79 -5 6 -46 52 -90 101 -111
125 -121 135 -290 280 -82 70 -152 131 -155 135 -3 3 -14 13 -26 21 -87 60
-356 322 -495 483 -52 59 -110 127 -130 150 -20 23 -39 57 -43 78 -7 38 -30
94 -85 207 -17 36 -31 70 -31 77 0 20 -47 104 -54 97 -3 -4 -6 4 -6 16 0 27
-43 114 -145 296 -25 46 -111 173 -124 185 -3 3 -24 28 -46 55 -21 28 -42 52
-45 55 -3 3 -51 59 -107 125 -216 258 -369 388 -627 534 -159 90 -171 94 -212
75 -37 -18 -62 -50 -70 -94 -5 -23 9 -59 68 -178 42 -82 92 -176 113 -208 115
-177 173 -265 210 -314 36 -50 61 -82 174 -220 136 -167 275 -304 381 -376 87
-58 204 -120 262 -139 138 -45 163 -65 339 -266 110 -125 127 -145 183 -218
104 -136 71 -124 -189 66 -55 40 -111 81 -124 91 -13 9 -35 24 -49 32 -14 8
-35 24 -48 35 -12 11 -107 71 -211 134 -103 63 -223 136 -265 163 -42 26 -87
53 -100 58 -13 6 -57 31 -98 57 -224 138 -426 246 -540 289 -36 13 -74 28 -85
33 -89 40 -373 124 -393 116 -9 -3 -13 -3 -9 2 9 8 -52 24 -183 48 -93 16
-290 22 -355 10 -66 -12 -174 -130 -160 -174 13 -41 98 -99 277 -188 161 -81
351 -161 528 -224 30 -11 69 -26 85 -33 44 -20 143 -58 290 -111 72 -25 159
-57 195 -70 111 -40 231 -76 326 -95 114 -24 127 -25 514 -61 146 -13 178 -22
257 -70 36 -21 67 -39 69 -39 3 0 71 -45 152 -100 440 -300 557 -399 1028
-879 464 -471 517 -542 590 -781 64 -212 98 -315 106 -324 4 -6 8 -20 8 -32 0
-13 4 -25 9 -28 5 -3 12 -17 15 -31 7 -26 165 -434 191 -490 7 -16 32 -70 54
-118 23 -49 41 -90 41 -92 0 -12 117 -250 171 -348 159 -288 169 -305 184
-317 8 -7 15 -17 15 -23 0 -5 11 -25 25 -43 14 -18 25 -37 25 -43 0 -15 -17
-14 -27 2 -4 7 -39 39 -78 72 -38 33 -97 85 -130 116 -145 135 -186 172 -280
251 -55 46 -109 90 -121 98 -24 17 -121 101 -198 171 -70 63 -203 178 -251
214 -21 17 -55 44 -74 61 -20 16 -49 40 -66 53 -36 26 -53 41 -210 167 -66 54
-122 100 -125 104 -13 17 -239 186 -303 227 -181 117 -416 227 -612 288 -49
15 -108 33 -131 40 -78 26 -160 43 -229 49 -38 4 -99 11 -135 16 -195 27 -735
86 -875 96 -94 7 -113 7 -445 4 -254 -2 -326 11 -499 91 -159 74 -371 119
-553 119 -131 0 -306 -28 -383 -61 -11 -4 -40 -15 -65 -23 -35 -11 -292 -118
-500 -207 -14 -6 -38 -17 -55 -24 -191 -81 -260 -134 -235 -181 52 -96 320
-136 875 -129 177 3 317 10 440 24 251 29 298 37 434 77 35 10 154 70 203 101
24 15 52 32 63 38 43 24 70 40 75 45 10 10 87 43 145 62 53 17 90 19 315 19
140 0 280 -2 310 -5 96 -10 402 -57 470 -72 36 -8 77 -14 93 -14 48 0 30 -26
-35 -50 -35 -12 -171 -59 -303 -105 -132 -46 -292 -102 -356 -124 -95 -33
-126 -40 -178 -37 -34 1 -64 -1 -67 -5 -2 -5 -10 -6 -17 -4 -20 8 -190 -25
-327 -63 -77 -22 -178 -63 -335 -136 -38 -19 -97 -45 -130 -60 -33 -15 -269
-132 -525 -259 -396 -198 -468 -238 -487 -266 -22 -33 -22 -35 -6 -54 40 -44
66 -49 186 -37 62 6 137 13 167 16 194 17 478 88 635 159 27 13 73 33 100 45
71 32 275 133 305 151 14 9 80 50 148 92 68 42 125 77 127 77 2 0 40 25 85 55
45 30 84 55 87 55 10 0 82 58 143 115 76 72 128 106 190 124 25 7 54 17 65 21
28 11 296 120 320 130 11 5 38 14 60 21 22 6 48 15 57 20 10 5 26 9 36 9 10 0
42 7 72 15 199 55 312 64 457 36 151 -29 297 -86 478 -185 78 -42 250 -157
265 -175 9 -12 234 -187 324 -251 49 -36 105 -79 125 -96 20 -17 61 -49 92
-70 97 -68 318 -238 418 -322 24 -20 67 -54 95 -76 90 -68 189 -154 325 -281
41 -38 84 -79 96 -90 12 -11 46 -40 75 -65 29 -25 60 -52 69 -61 9 -8 72 -64
141 -125 69 -60 165 -148 215 -195 49 -48 173 -157 275 -244 102 -86 194 -166
205 -177 l20 -20 -25 5 c-22 4 -269 103 -355 141 -16 8 -91 38 -165 66 -190
74 -334 133 -410 168 -217 100 -360 153 -580 217 -288 83 -404 136 -528 241
-71 61 -264 162 -477 252 -209 88 -270 109 -520 177 -135 36 -295 57 -475 62
-175 4 -193 3 -340 -26 -86 -16 -168 -35 -183 -40 -16 -6 -39 -11 -53 -11 -13
0 -24 -4 -24 -10 0 -5 -11 -10 -25 -10 -14 0 -33 -4 -43 -9 -9 -5 -30 -15 -45
-22 -36 -17 -61 -62 -48 -87 31 -58 225 -156 400 -202 66 -17 555 -104 651
-115 19 -2 85 -11 145 -20 61 -8 133 -18 160 -21 28 -3 75 -9 105 -14 30 -5
98 -12 150 -15 52 -3 120 -7 150 -10 30 -3 80 -7 110 -10 54 -5 154 -17 275
-35 205 -30 459 -91 670 -162 50 -16 97 -32 105 -34 91 -22 580 -214 775 -304
149 -69 344 -148 425 -175 149 -48 265 -111 475 -260 28 -19 61 -43 74 -53 14
-9 52 -41 85 -71 34 -29 84 -70 111 -91 28 -21 68 -54 90 -73 22 -20 67 -61
100 -91 33 -30 83 -74 111 -98 102 -85 291 -259 565 -518 21 -19 81 -73 136
-120 54 -47 134 -121 178 -166 530 -535 708 -717 795 -814 57 -63 142 -155
190 -205 85 -88 190 -204 320 -355 36 -41 74 -84 85 -96 11 -11 29 -31 40 -45
69 -84 261 -305 268 -307 10 -5 9 -22 -1 -22 -5 0 -50 32 -101 70 -50 39 -138
100 -194 138 -109 71 -115 75 -193 121 -137 79 -529 237 -809 325 -82 26 -195
63 -250 81 -55 18 -154 50 -220 70 -66 21 -145 46 -175 56 -30 10 -122 38
-205 63 -197 59 -276 84 -300 95 -11 5 -58 19 -105 31 -47 12 -94 26 -105 30
-11 5 -49 18 -84 29 -35 11 -84 37 -110 58 -43 36 -161 152 -161 159 0 2 -78
84 -173 181 -227 234 -362 374 -428 448 -30 33 -152 159 -273 280 -262 264
-320 329 -404 460 -113 175 -219 287 -410 435 -115 88 -277 174 -562 297 -146
63 -344 136 -535 197 -82 26 -158 52 -168 58 -21 10 -123 -7 -133 -23 -3 -5
-9 -7 -14 -4 -20 13 -20 -19 2 -62 23 -47 94 -105 328 -268 47 -32 87 -61 90
-65 13 -14 118 -80 127 -80 6 0 13 -4 15 -8 4 -11 283 -193 338 -222 223 -114
601 -258 836 -319 32 -9 61 -32 144 -118 57 -60 155 -162 219 -228 64 -66 235
-244 381 -395 146 -151 308 -320 360 -374 52 -55 148 -154 212 -220 64 -67
114 -124 110 -128 -8 -8 -233 50 -342 88 -195 68 -534 190 -565 204 -11 4 -72
27 -135 50 -63 23 -196 72 -295 110 -99 37 -297 107 -440 155 -227 77 -322
111 -400 145 -35 15 -209 100 -231 113 -56 33 -147 117 -296 272 -468 489
-470 490 -948 730 -253 127 -635 292 -800 346 -14 4 -63 21 -109 38 -89 33
-156 39 -186 17 -30 -22 -14 -112 33 -184 20 -31 39 -59 42 -62 3 -3 38 -44
78 -92 116 -140 324 -334 448 -418 100 -69 200 -133 248 -161 31 -19 65 -39
74 -44 171 -103 258 -139 687 -285 375 -128 394 -135 395 -142 0 -10 -41 -10
-225 2 -585 37 -981 41 -1541 15 -175 -8 -358 -42 -509 -94 -33 -11 -95 -29
-137 -40 -42 -11 -96 -28 -120 -39 l-43 -19 70 -32 c64 -30 80 -33 195 -36 69
-3 159 -7 200 -9 424 -28 1044 -40 1256 -25 233 17 271 20 339 24 281 17 586
74 694 128 25 12 173 16 226 6 17 -4 48 -14 70 -24 55 -24 216 -83 535 -195
74 -26 207 -75 295 -109 180 -70 216 -84 365 -136 58 -20 119 -42 135 -49 17
-7 63 -23 103 -36 65 -22 93 -41 60 -40 -33 1 -537 -12 -563 -14 -16 -1 -59
-6 -95 -9 -36 -4 -128 -11 -205 -17 -77 -6 -167 -13 -200 -16 -33 -3 -242 -7
-465 -10 -507 -5 -800 -23 -990 -60 -41 -8 -145 -26 -230 -39 -85 -14 -173
-29 -195 -34 -22 -5 -78 -19 -125 -30 -47 -11 -125 -29 -175 -41 -224 -52
-316 -84 -369 -131 -25 -23 -46 -44 -46 -48 0 -8 60 -31 82 -31 8 0 44 -9 78
-20 99 -32 96 -31 460 -34 517 -4 653 7 940 79 58 15 114 30 125 35 11 5 85
30 165 56 80 26 147 50 150 53 3 3 34 21 70 39 36 18 108 57 160 87 52 30 103
55 113 55 10 0 26 4 35 9 9 5 73 11 142 15 69 3 175 13 235 21 145 19 283 28
490 30 518 8 521 8 660 -35 70 -21 155 -46 205 -60 108 -30 590 -185 745 -240
17 -5 104 -33 195 -60 91 -28 201 -61 245 -75 44 -13 170 -47 280 -75 110 -28
209 -54 220 -59 11 -5 33 -12 49 -16 16 -3 25 -10 20 -14 -9 -9 -301 -64 -399
-76 -27 -4 -131 -20 -229 -36 l-179 -30 -71 23 c-64 21 -89 23 -251 22 -251
-2 -286 -5 -500 -45 -33 -6 -93 -17 -133 -25 -40 -7 -88 -18 -105 -23 -195
-63 -316 -103 -332 -110 -11 -5 -64 -26 -118 -46 -53 -21 -100 -41 -103 -46
-3 -5 -12 -9 -20 -9 -13 0 -32 -8 -161 -66 -28 -13 -54 -24 -57 -24 -2 0 -40
-16 -83 -36 -78 -36 -246 -112 -313 -141 -78 -34 -123 -60 -157 -89 l-36 -30
74 -36 74 -36 145 13 c80 7 201 20 270 29 127 16 258 32 340 40 70 7 345 53
445 75 83 18 242 67 347 107 113 43 438 216 488 259 36 32 231 123 295 139 39
10 93 24 120 31 28 8 70 17 95 20 25 4 69 13 99 21 29 7 144 28 255 45 282 44
361 36 651 -63 201 -68 362 -132 465 -183 91 -45 272 -163 330 -215 19 -16 53
-43 75 -58 22 -14 61 -44 86 -64 25 -21 50 -38 56 -38 6 0 51 -31 100 -69 88
-69 177 -157 263 -260 43 -53 256 -277 293 -310 16 -13 119 -131 221 -251 31
-37 82 -103 233 -305 151 -200 151 -200 261 -340 43 -55 83 -108 88 -116 5 -9
28 -38 51 -65 23 -27 67 -80 98 -119 92 -115 212 -231 365 -354 80 -64 151
-121 158 -128 18 -18 44 -16 40 2 -5 23 -87 116 -158 178 -176 154 -345 334
-462 492 -4 6 -27 33 -50 60 -24 28 -81 100 -128 159 -47 60 -108 136 -136
170 -75 91 -173 221 -234 311 -30 44 -58 82 -61 85 -3 3 -12 16 -19 29 -7 14
-17 30 -22 35 -18 21 -86 132 -117 190 -17 33 -36 65 -42 72 -23 28 -17 82 43
404 109 585 118 660 113 935 -3 208 -6 244 -33 380 -40 198 -42 207 -51 230
-5 11 -14 38 -21 60 -7 22 -25 68 -42 103 -27 57 -31 62 -62 62 -23 0 -40 -9
-62 -32 -40 -44 -51 -71 -59 -154 -7 -79 -30 -298 -45 -429 -5 -49 -14 -153
-20 -230 -6 -77 -13 -153 -16 -169 -8 -46 -13 -236 -14 -483 -1 -172 -4 -233
-13 -233 -41 0 -408 659 -498 894 -21 54 -29 75 -47 116 -27 60 -133 331 -147
376 -9 27 -20 57 -25 66 -6 10 -10 27 -10 37 0 11 -4 23 -10 26 -5 3 -10 16
-10 29 0 12 -4 26 -8 32 -5 5 -17 36 -27 69 -11 33 -23 64 -27 70 -4 5 -8 19
-8 32 0 13 -4 31 -9 41 -13 25 -41 121 -41 143 0 10 -4 20 -9 23 -5 3 -11 20
-14 38 -3 18 -17 76 -32 128 -29 101 -46 172 -70 285 -24 117 -45 207 -50 215
-12 19 -17 258 -7 310 7 30 14 78 17 105 27 259 252 956 436 1351 10 23 19 44
19 48 0 4 11 31 24 59 13 29 40 90 60 137 66 153 67 155 106 155 31 0 39 6 68
50 18 28 72 129 121 226 49 96 109 211 133 255 135 237 247 509 323 784 14 52
30 109 35 125 14 44 67 273 75 321 5 31 2 44 -9 54 -24 19 -85 5 -117 -27 -29
-30 -366 -530 -407 -603 -14 -25 -37 -61 -51 -80 -15 -19 -32 -46 -39 -60 -7
-14 -26 -45 -42 -70 -16 -25 -45 -79 -65 -120 -20 -41 -41 -84 -47 -95 -6 -11
-25 -65 -41 -120 -31 -100 -31 -100 -32 -370 l-2 -270 -115 -235 c-64 -129
-119 -246 -123 -260 -4 -14 -15 -43 -25 -65 -53 -123 -138 -376 -208 -620 -22
-77 -53 -180 -67 -230 -15 -49 -28 -97 -29 -105 -2 -8 -5 -22 -8 -30 -4 -8
-14 -46 -24 -85 -17 -69 -29 -94 -39 -83 -13 12 -31 283 -40 593 -3 99 -8 200
-10 225 -3 25 -7 119 -10 210 -3 91 -10 228 -15 305 -16 233 -12 903 5 1031
21 161 20 158 150 418 50 100 104 217 119 261 37 104 81 280 96 380 6 44 13
91 15 105 3 14 7 124 11 245 5 213 -9 459 -46 765 -13 113 -11 284 5 390 8 52
12 96 10 98 -9 9 -37 -18 -92 -88 -113 -145 -243 -380 -327 -595 -26 -66 -52
-131 -58 -145 -51 -124 -111 -337 -139 -500 -20 -115 -15 -333 10 -484 12 -71
24 -132 26 -136 10 -17 73 -267 115 -455 6 -27 15 -64 21 -81 5 -16 8 -86 7
-155 -7 -424 11 -1417 31 -1709 4 -58 6 -109 3 -113 -6 -13 -32 14 -32 34 0
10 -4 21 -10 24 -5 3 -10 15 -10 26 0 10 -4 27 -9 37 -6 9 -19 44 -31 77 -18
51 -67 146 -167 320 -12 22 -27 51 -33 64 -6 13 -24 44 -40 68 -17 24 -30 50
-30 58 0 7 -3 15 -8 17 -6 3 -89 142 -105 178 -4 8 -17 31 -28 50 -21 34 -44
74 -95 167 -14 27 -30 53 -34 58 -8 10 -34 56 -76 134 -14 25 -52 87 -85 136
-32 50 -62 97 -66 105 -4 8 -17 26 -30 40 -13 14 -23 29 -23 33 0 5 -16 32
-35 61 -44 66 -74 136 -113 256 -36 113 -57 168 -107 275 -59 128 -144 297
-157 313 -13 15 -33 48 -44 72 -4 8 -27 46 -51 83 -23 37 -43 70 -43 73 0 3
-8 17 -19 32 -36 53 -256 387 -260 396 -3 9 -128 169 -166 214 -85 101 -242
243 -345 312 -36 24 -134 113 -219 199 l-154 155 7 -54 c8 -57 32 -160 46
-195 5 -11 20 -54 35 -95 15 -41 30 -84 35 -95 4 -11 20 -51 35 -90 15 -38 33
-83 40 -100 7 -16 19 -47 26 -67 7 -21 17 -38 21 -38 4 0 8 -7 8 -16 0 -39
145 -397 197 -486 18 -31 33 -59 33 -62 0 -12 128 -215 199 -314 105 -149 264
-324 401 -442 35 -30 89 -78 120 -106 58 -54 179 -159 239 -208 20 -17 54 -46
76 -65 22 -20 58 -49 79 -66 106 -81 164 -147 243 -278 78 -128 252 -427 266
-457 4 -8 15 -28 25 -45 10 -16 33 -57 51 -90 18 -33 36 -64 41 -70 4 -5 27
-46 50 -90 24 -44 64 -111 88 -150 71 -110 160 -291 193 -389 29 -89 38 -135
59 -311 27 -226 144 -935 160 -965 4 -8 11 -37 15 -65 4 -27 13 -65 20 -85 7
-19 18 -55 25 -80 7 -25 16 -54 20 -65 5 -11 11 -29 15 -40 4 -11 21 -56 37
-100 53 -147 98 -288 98 -309 -1 -18 -5 -16 -31 14 -16 19 -84 116 -151 215
-66 99 -157 220 -201 270 -85 96 -130 155 -296 385 -57 80 -121 165 -141 190
-33 40 -65 98 -91 165 -29 77 -96 234 -107 253 -19 30 -62 29 -112 -4 -93 -61
-106 -137 -60 -348 36 -172 127 -358 259 -534 120 -161 178 -224 466 -504 566
-553 589 -577 648 -676 18 -30 41 -68 51 -86 10 -17 50 -92 89 -166 38 -74 94
-179 125 -235 30 -55 75 -138 100 -185 111 -210 162 -296 271 -458 64 -96 122
-182 129 -192 8 -11 11 -24 7 -29 -6 -11 -55 42 -187 201 -65 80 -238 279
-248 288 -3 3 -42 46 -85 95 -44 50 -82 92 -85 95 -3 3 -18 21 -34 40 -15 19
-47 55 -70 80 -22 25 -56 63 -75 85 -18 22 -52 60 -75 85 -22 25 -70 79 -106
120 -36 41 -70 80 -76 85 -5 6 -44 48 -84 95 -112 127 -156 173 -650 668 -518
520 -755 748 -776 746 -7 -1 -12 2 -9 6 9 15 -345 336 -796 721 -266 228 -293
252 -379 344 -143 153 -265 288 -288 319 -13 17 -28 30 -33 28 -5 -1 -9 3 -9
9 0 7 -17 31 -37 54 -21 23 -53 59 -71 81 -49 57 -223 290 -266 354 -20 30
-40 60 -45 66 -5 6 -37 62 -71 125 -34 63 -65 119 -70 124 -4 6 -31 57 -61
115 -29 58 -56 107 -60 110 -6 5 -329 658 -351 710 -13 31 -30 69 -61 140 -14
30 -28 66 -32 80 -4 14 -11 30 -14 35 -4 6 -13 30 -20 55 -7 25 -17 55 -22 67
-5 13 -18 78 -30 145 -17 102 -20 146 -15 253 8 169 14 234 31 320 26 130 213
468 325 586 8 9 33 40 55 69 22 29 60 78 85 110 25 32 61 81 80 108 37 51 90
93 176 137 28 15 81 52 116 83 36 31 107 93 158 137 340 293 611 600 747 845
74 134 109 210 178 388 59 153 63 177 40 223 -14 25 -20 28 -47 24 -40 -7 -69
-34 -192 -170 -54 -60 -135 -148 -180 -195 -97 -102 -189 -201 -311 -334 -49
-55 -97 -106 -106 -115 -9 -9 -58 -66 -110 -127 -227 -267 -329 -431 -395
-634 -25 -76 -43 -115 -67 -145 -26 -32 -163 -221 -306 -423 -91 -128 -169
-232 -173 -232 -10 0 -2 110 17 245 8 55 22 156 31 225 17 136 33 207 88 402
80 280 122 357 268 491 153 139 164 150 202 200 37 48 126 215 178 332 47 104
181 471 198 538 5 18 16 59 25 92 9 33 25 92 35 130 10 39 26 97 35 130 23 81
55 297 55 366 0 55 -31 149 -49 149 -31 0 -102 -46 -136 -88 -22 -27 -99 -119
-170 -203 -72 -85 -157 -188 -190 -229 -33 -41 -68 -84 -78 -95 -55 -59 -165
-245 -209 -356 -66 -163 -103 -416 -83 -564 14 -106 25 -290 21 -345 -6 -69
-32 -169 -96 -365 -67 -204 -94 -316 -135 -553 -13 -79 -38 -219 -54 -310 -78
-439 -92 -549 -90 -701 2 -183 1 -201 -10 -201 -8 0 -12 16 -41 145 -6 28 -15
58 -20 67 -6 10 -10 26 -10 36 0 9 -9 42 -21 72 -11 30 -25 72 -30 93 -9 36
-40 121 -88 240 -6 15 -11 37 -11 47 0 11 -4 20 -10 20 -5 0 -10 13 -10 28 0
15 -4 32 -9 38 -5 5 -34 86 -65 179 -31 94 -61 179 -66 190 -5 11 -12 31 -15
45 -4 14 -13 39 -20 55 -7 17 -30 71 -50 120 -20 50 -45 109 -56 132 -10 24
-19 46 -19 49 0 3 -7 22 -16 42 -21 47 -24 57 -76 182 -24 58 -50 125 -58 150
-7 25 -17 49 -22 55 -4 5 -8 19 -8 31 0 13 -4 26 -10 29 -5 3 -10 19 -10 34 0
15 -4 31 -9 36 -8 10 -62 220 -115 450 -39 170 -74 372 -86 490 -5 58 -12 110
-15 114 -8 15 -13 360 -5 389 48 166 59 187 195 407 38 61 81 133 97 160 16
28 56 92 88 143 33 51 60 95 60 98 0 3 17 28 38 57 20 29 55 81 77 117 147
243 308 407 505 513 58 31 117 54 230 88 94 28 424 181 455 210 5 5 15 9 22 9
16 0 297 168 382 229 114 80 250 225 334 352 41 64 100 145 129 180 75 89 95
126 97 183 l2 49 -43 -5 c-33 -4 -96 -37 -263 -138 -394 -238 -482 -290 -493
-290 -6 0 -12 -4 -14 -8 -1 -5 -37 -25 -78 -45 -107 -53 -257 -135 -386 -212
-159 -96 -284 -218 -465 -454 -35 -46 -82 -107 -103 -135 -21 -28 -42 -53 -46
-56 -3 -3 -39 -50 -80 -105 -40 -55 -103 -140 -140 -190 -247 -334 -337 -475
-532 -837 -44 -82 -84 -148 -89 -148 -5 0 -6 21 -3 48 12 100 19 252 13 269
-10 26 0 283 15 393 3 19 8 58 11 85 3 28 17 95 30 150 13 55 31 145 40 200
39 248 53 292 135 460 73 148 141 275 189 356 36 60 187 364 213 430 15 35 64
159 111 274 138 340 211 573 232 735 14 102 -2 394 -24 453 -5 12 -12 44 -15
71 -4 27 -11 56 -16 65 -5 9 -16 39 -25 66 -41 123 -71 182 -102 202 -15 10
-31 22 -34 27 -8 11 -61 -45 -95 -100 -39 -66 -127 -293 -174 -454 -16 -52
-78 -240 -138 -418 -143 -418 -197 -625 -237 -897 -47 -321 -62 -524 -70 -975
-2 -118 -7 -231 -10 -250 -3 -19 -7 -48 -9 -65 -7 -59 -18 -131 -33 -215 -8
-47 -16 -92 -18 -100 -1 -8 -5 -36 -10 -62 -8 -50 -19 -61 -30 -28 -3 10 -37
72 -74 137 -106 183 -142 249 -277 518 -126 251 -136 269 -165 315 -8 14 -21
41 -29 60 -7 19 -20 51 -28 70 -32 79 -42 106 -62 180 -7 25 -18 65 -26 90
-17 58 -48 182 -74 294 -21 86 -28 248 -15 331 39 264 -11 648 -126 955 -69
188 -104 268 -144 341 -57 100 -214 325 -223 319 -14 -10 -1 -45 42 -115 24
-38 56 -95 72 -125 16 -30 38 -68 50 -85 27 -38 114 -208 114 -223 0 -7 4 -20
9 -30 63 -124 180 -531 166 -576 -2 -6 -7 -54 -10 -106 -3 -52 -8 -113 -10
-135 -11 -118 -15 -170 -21 -265 -6 -110 -10 -125 -20 -94 -3 10 -10 28 -14
39 -26 59 -107 289 -205 580 -21 61 -41 119 -45 130 -4 11 -13 38 -18 60 -6
22 -20 71 -32 109 -23 80 -61 277 -85 451 -35 248 -67 450 -75 464 -5 9 -12
-5 -20 -38z m2218 -283 c30 -143 42 -195 52 -238 48 -204 63 -487 31 -615 -24
-92 -89 -277 -131 -370 -71 -158 -166 -384 -199 -475 -23 -63 -66 -163 -96
-222 -64 -128 -165 -319 -175 -333 -5 -5 -38 -70 -75 -143 -36 -74 -69 -132
-71 -129 -9 8 39 172 169 577 16 52 56 172 87 265 167 496 326 1012 316 1023
-8 7 -42 -55 -56 -101 -7 -23 -37 -114 -67 -202 -29 -88 -55 -167 -57 -175 -2
-8 -13 -42 -24 -75 -55 -167 -86 -266 -138 -435 -65 -213 -195 -609 -216 -658
-13 -30 -16 -32 -29 -16 -23 28 -17 422 10 592 74 471 231 945 524 1575 69
149 106 217 117 217 11 0 19 -18 28 -62z m-2901 -730 c132 -56 260 -132 370
-219 56 -45 257 -256 312 -328 75 -100 191 -270 191 -281 0 -6 4 -10 9 -10 5
0 14 -13 21 -30 7 -16 16 -30 20 -30 4 0 10 -8 13 -17 4 -10 17 -36 29 -58 81
-141 208 -381 208 -394 0 -17 -17 -13 -37 8 -22 22 -161 137 -301 249 -360
286 -571 485 -699 657 -41 55 -80 107 -87 116 -10 12 -64 119 -138 271 -4 10
-8 26 -8 36 0 10 -5 23 -11 29 -11 11 -6 43 5 43 3 0 49 -19 103 -42z m-2277
-588 c52 -11 120 -25 150 -31 129 -25 365 -95 465 -138 53 -23 262 -127 275
-138 8 -7 34 -25 57 -40 96 -64 289 -262 413 -423 19 -25 37 -47 40 -50 11
-10 126 -161 165 -216 22 -31 48 -65 57 -77 43 -49 -21 -26 -97 35 -5 5 -40
30 -77 56 -36 26 -128 94 -203 152 -237 183 -350 266 -464 342 -17 12 -29 14
-35 8 -12 -12 87 -115 172 -183 123 -97 177 -137 302 -227 117 -85 337 -259
397 -314 22 -21 31 -46 15 -46 -4 0 -35 7 -67 16 -33 9 -64 17 -70 18 -5 2
-17 5 -25 8 -8 3 -53 17 -100 33 -180 59 -694 296 -955 440 -38 22 -87 48
-107 60 -181 99 -576 339 -623 378 -5 4 -40 29 -76 55 -37 26 -82 58 -100 72
-48 35 -205 188 -199 194 3 2 41 7 85 9 138 9 329 28 335 34 9 10 173 -7 270
-27z m6984 -292 c-16 -52 -136 -210 -234 -308 -178 -178 -371 -328 -618 -479
-197 -121 -334 -190 -557 -281 -63 -26 -216 -71 -224 -65 -14 8 103 171 195
272 121 133 364 325 509 403 17 9 77 42 134 74 57 32 161 85 230 118 201 96
369 182 461 236 98 57 115 62 104 30z m-420 -2376 c-2 -50 -8 -107 -18 -192
-25 -201 -141 -612 -241 -856 -99 -238 -209 -441 -302 -552 -73 -87 -197 -205
-201 -192 -5 14 56 214 130 423 92 265 141 432 109 377 -5 -8 -32 -78 -61
-155 -110 -299 -171 -461 -180 -475 -46 -70 -68 354 -30 560 44 242 195 541
384 765 64 76 238 250 295 295 24 19 55 45 69 58 36 32 50 15 46 -56z m-4240
-447 c270 -111 692 -517 977 -940 71 -105 163 -267 221 -385 53 -110 101 -240
92 -249 -8 -8 -52 45 -131 159 -36 52 -69 97 -73 100 -3 3 -28 36 -54 74 -27
38 -52 74 -57 80 -5 6 -30 40 -56 76 -26 36 -51 70 -55 75 -5 6 -31 42 -59 80
-28 39 -55 75 -61 80 -19 19 65 -121 129 -212 35 -51 86 -126 113 -165 28 -40
70 -102 95 -138 50 -72 47 -84 -20 -74 -175 28 -525 327 -785 673 -14 18 -31
40 -39 48 -8 8 -50 65 -93 127 -43 61 -82 116 -88 123 -10 12 -29 46 -78 133
-13 25 -33 59 -42 75 -55 92 -91 224 -74 269 9 24 69 20 138 -9z m5006 -422
c0 -8 -161 -328 -258 -513 -92 -177 -106 -197 -301 -437 -35 -43 -125 -140
-200 -216 -75 -76 -150 -152 -167 -170 -71 -74 -307 -242 -324 -232 -9 6 22
40 211 240 42 44 111 134 154 200 43 66 82 127 88 135 5 8 -5 -1 -23 -20 -72
-77 -317 -342 -389 -422 -70 -77 -76 -52 -18 71 65 139 168 288 317 461 45 52
103 120 129 150 103 121 752 759 774 760 4 0 7 -3 7 -7z m-5880 -408 c109 -16
353 -83 490 -135 151 -57 314 -121 350 -138 103 -46 463 -225 512 -254 142
-84 170 -101 209 -134 34 -28 37 -34 20 -34 -12 0 -29 4 -39 10 -9 5 -73 32
-142 60 -135 55 -150 62 -253 109 -37 18 -73 29 -79 25 -7 -4 -8 -3 -4 4 4 7
2 12 -4 12 -6 0 -77 30 -158 66 -81 36 -156 69 -167 74 -11 5 -51 23 -89 40
-38 17 -70 29 -72 27 -3 -3 273 -143 336 -170 19 -8 74 -34 123 -56 48 -23 90
-41 92 -41 9 0 280 -118 470 -204 28 -13 83 -38 123 -56 40 -18 71 -38 69 -44
-5 -16 -248 -16 -359 0 -90 13 -202 37 -263 55 -16 5 -88 27 -160 48 -71 22
-159 51 -195 64 -213 80 -274 104 -335 132 -16 7 -52 22 -80 33 -27 11 -99 43
-160 71 -60 29 -155 73 -210 99 -297 140 -333 168 -320 247 7 49 19 63 70 86
40 18 121 20 225 4z m8237 -1094 c-2 -119 -1 -245 4 -282 4 -36 10 -231 13
-435 6 -447 -2 -523 -77 -779 -21 -73 -94 -252 -125 -307 -34 -61 -53 -63 -47
-5 16 155 25 243 30 322 7 110 19 239 30 340 2 17 7 80 10 140 4 61 8 117 10
125 11 61 16 180 7 180 -12 0 -17 -27 -37 -200 -8 -69 -19 -159 -24 -200 -6
-41 -13 -100 -16 -130 -18 -182 -79 -580 -97 -635 -32 -96 -63 -33 -118 244
-38 192 -48 299 -44 466 5 233 21 349 77 565 29 112 78 254 89 258 4 2 8 11 8
19 0 24 125 275 177 355 26 40 54 84 63 98 8 14 24 39 35 57 11 17 23 29 28
26 5 -3 7 -103 4 -222z m-2757 -311 c3 -4 28 -21 55 -40 45 -30 313 -292 425
-415 53 -57 209 -256 260 -330 19 -27 40 -55 46 -62 26 -28 176 -256 232 -353
88 -154 177 -332 207 -413 15 -40 30 -81 35 -92 24 -55 51 -147 48 -162 -2
-12 -18 0 -55 43 -82 93 -182 212 -260 309 -40 50 -109 135 -154 190 -44 55
-99 123 -121 150 -60 74 -129 147 -135 141 -6 -6 142 -216 212 -301 27 -33 53
-64 58 -70 4 -5 18 -24 30 -41 12 -17 58 -78 102 -134 146 -187 169 -217 273
-353 131 -173 133 -187 22 -114 -225 145 -523 442 -716 712 -131 183 -304 474
-304 511 0 7 -4 14 -8 16 -8 3 -56 99 -107 213 -97 215 -225 601 -209 627 4 7
50 -16 64 -32z m3964 -964 c-33 -140 -255 -728 -381 -1006 -11 -25 -35 -79
-53 -120 -18 -41 -52 -115 -75 -165 -23 -49 -59 -127 -80 -172 -40 -86 -56
-100 -98 -84 -53 20 -57 38 -51 251 7 275 21 330 125 475 31 44 86 125 121
180 36 55 105 157 154 227 91 129 209 298 277 397 21 30 36 60 34 65 -3 6 6
12 18 12 23 2 23 2 9 -60z m-9814 -137 c164 -26 398 -102 460 -149 l25 -19
-26 -9 c-14 -6 -88 -13 -165 -17 -76 -4 -157 -9 -179 -10 -106 -5 -334 -29
-330 -34 6 -6 242 -4 355 3 36 2 163 7 283 11 213 7 247 3 195 -23 -13 -6 -45
-25 -73 -41 -84 -50 -171 -89 -257 -115 -289 -86 -567 -117 -993 -111 -148 3
-292 7 -320 10 -156 17 -340 61 -340 82 0 12 61 56 172 124 258 160 562 274
791 298 114 12 328 12 402 0z m1090 -639 c0 -5 -107 -62 -237 -126 -309 -150
-383 -187 -379 -191 2 -2 14 1 27 6 13 5 83 28 154 51 122 39 316 124 323 142
2 4 8 8 13 8 6 0 48 19 95 42 84 41 116 46 73 11 -12 -10 -38 -32 -58 -49
-111 -94 -188 -148 -291 -201 -63 -33 -137 -72 -165 -88 -104 -57 -191 -102
-232 -118 -23 -9 -64 -26 -90 -38 -93 -42 -109 -48 -198 -77 -108 -35 -184
-53 -370 -87 -77 -14 -180 -34 -230 -45 -164 -34 -215 -43 -222 -36 -3 3 -4 8
-2 10 4 3 95 56 167 97 17 11 47 27 65 38 159 91 301 171 304 171 3 0 17 8 31
19 43 30 509 264 592 296 41 16 77 33 78 37 2 5 14 8 26 8 12 0 26 4 32 9 14
14 182 70 285 96 98 24 209 32 209 15z m1271 -880 c432 -55 794 -188 1119
-411 94 -64 163 -125 156 -138 -3 -4 -47 -2 -98 5 -93 12 -266 29 -388 40 -36
2 -103 10 -150 15 -47 6 -110 12 -140 15 -30 2 -100 9 -155 15 -55 6 -107 11
-115 11 -8 0 -37 4 -64 9 -28 5 -86 14 -130 19 -423 52 -797 152 -939 252 -15
11 -25 24 -22 29 10 14 127 77 175 92 132 42 160 49 234 56 164 15 358 12 517
-9z m934 -1065 c92 -24 304 -95 360 -120 28 -12 84 -37 125 -55 41 -18 122
-58 180 -88 58 -31 119 -62 135 -70 118 -59 368 -231 463 -318 82 -75 157
-172 164 -210 3 -16 -3 -19 -36 -18 -50 2 -129 19 -231 51 -435 136 -987 453
-1306 752 -104 97 -103 106 4 98 45 -4 109 -14 142 -22z m-1733 -229 c311 -66
934 -349 1304 -592 49 -33 96 -62 104 -66 8 -3 47 -32 85 -63 39 -30 86 -68
105 -83 47 -37 146 -129 189 -176 20 -21 50 -53 66 -70 17 -17 46 -53 65 -79
19 -26 47 -64 63 -84 24 -32 35 -63 22 -63 -9 0 -107 51 -147 76 -21 13 -44
24 -52 24 -8 0 -16 3 -18 8 -1 4 -37 27 -78 51 -41 24 -86 51 -100 61 -14 9
-52 31 -85 50 -33 18 -67 39 -75 45 -8 7 -78 50 -155 95 -77 45 -153 90 -170
100 -16 10 -77 47 -135 83 -146 91 -436 257 -449 257 -23 0 -9 -18 50 -66 164
-132 272 -203 469 -306 47 -25 155 -82 240 -128 529 -284 595 -321 585 -332
-5 -5 -313 98 -542 180 -626 225 -1111 559 -1367 942 -31 47 -60 90 -64 95
-13 17 -21 43 -15 49 9 9 31 7 105 -8z m6065 -641 c185 -249 360 -480 400
-530 38 -47 184 -235 279 -360 8 -11 47 -60 86 -110 39 -49 84 -110 101 -135
17 -25 50 -70 74 -100 95 -123 173 -235 173 -249 0 -16 -11 -14 -56 9 -111 57
-186 120 -429 364 -362 362 -502 524 -615 710 -116 192 -156 319 -138 448 10
77 16 94 27 82 5 -5 49 -63 98 -129z m-4697 -691 c118 -7 285 -20 370 -30 85
-9 171 -17 190 -18 23 -1 36 -7 38 -18 2 -12 -9 -18 -50 -23 -29 -4 -78 -13
-108 -21 -63 -16 -338 -60 -420 -68 -30 -3 -93 -9 -140 -15 -302 -36 -1247
-36 -1540 -1 -41 5 -102 12 -135 15 -149 13 -167 17 -153 30 36 33 419 108
698 135 306 30 875 37 1250 14z m6841 -599 c16 -36 35 -65 42 -66 9 0 9 -2 0
-6 -9 -3 -10 -10 -3 -23 23 -42 55 -218 67 -360 6 -76 5 -333 -2 -400 -29
-294 -37 -366 -51 -435 -8 -44 -16 -89 -18 -100 -1 -11 -6 -38 -10 -60 -4 -22
-12 -69 -17 -105 -17 -107 -50 -273 -60 -298 l-9 -24 -18 23 c-129 167 -162
483 -107 1019 16 153 20 181 36 270 5 30 14 87 19 125 6 39 24 147 41 240 17
94 33 186 36 205 5 43 11 60 18 60 3 0 19 -29 36 -65z m-6071 -189 c58 -5 60
-6 60 -15 0 -9 -134 -54 -300 -101 -77 -22 -105 -32 -200 -69 -31 -11 -60 -21
-66 -21 -7 0 -17 -7 -25 -16 -14 -18 -27 -19 146 22 61 14 153 38 205 54 117
35 182 52 282 75 122 28 118 6 -11 -65 -123 -67 -348 -133 -596 -174 -339 -57
-485 -69 -840 -70 -282 -1 -497 13 -510 34 -2 4 -2 16 1 27 19 70 502 194 944
243 41 4 154 22 250 39 235 41 469 54 660 37z m2763 -751 c-1 -5 -21 -17 -45
-26 -24 -9 -52 -19 -63 -24 -83 -34 -221 -85 -232 -85 -7 0 -13 -4 -13 -8 0
-4 -24 -16 -52 -27 -94 -33 -101 -35 -96 -40 3 -3 45 9 94 26 49 17 100 33
114 36 14 4 34 11 45 18 11 6 54 22 95 35 41 12 84 26 95 30 67 26 194 50 201
39 2 -4 -4 -16 -14 -26 -127 -122 -203 -168 -527 -318 -26 -12 -140 -50 -250
-85 -16 -5 -48 -12 -70 -16 -22 -4 -54 -13 -71 -20 -43 -18 -485 -91 -629
-104 -166 -15 -534 -22 -570 -11 -30 8 -29 9 40 40 39 17 124 59 190 93 296
153 491 248 507 248 9 0 18 3 20 8 8 18 352 131 526 172 79 19 194 37 280 45
171 15 428 15 425 0z"/>
<path d="M10290 12470 c-8 -5 -10 -10 -5 -10 6 0 17 5 25 10 8 5 11 10 5 10
-5 0 -17 -5 -25 -10z"/>
<path d="M10240 12450 c-8 -5 -10 -10 -5 -10 6 0 17 5 25 10 8 5 11 10 5 10
-5 0 -17 -5 -25 -10z"/>
<path d="M10181 12429 c-13 -5 -21 -12 -18 -15 3 -3 18 1 34 10 31 17 21 20
-16 5z"/>
<path d="M10105 12400 c-3 -5 1 -10 9 -10 8 0 18 5 21 10 3 6 -1 10 -9 10 -8
0 -18 -4 -21 -10z"/>
<path d="M10060 12380 c-8 -5 -10 -10 -5 -10 6 0 17 5 25 10 8 5 11 10 5 10
-5 0 -17 -5 -25 -10z"/>
<path d="M30645 17420 c-23 -37 -197 -398 -218 -450 -60 -155 -115 -368 -143
-560 -12 -79 -17 -184 -18 -335 -1 -278 12 -417 59 -645 3 -14 8 -86 12 -160
6 -139 -12 -350 -42 -497 -55 -273 -128 -573 -195 -803 -12 -41 -25 -88 -30
-105 -4 -16 -19 -66 -32 -110 -14 -44 -33 -107 -42 -140 -10 -33 -33 -109 -53
-170 -19 -60 -59 -191 -89 -290 -31 -99 -75 -238 -99 -310 -23 -71 -53 -164
-65 -205 -29 -99 -38 -120 -50 -120 -5 0 -10 12 -11 28 0 15 -2 34 -4 42 -45
171 -67 255 -80 300 -20 71 -51 226 -63 315 -13 100 -15 327 -2 415 6 41 15
117 20 167 6 51 21 150 36 220 56 276 68 512 34 673 -21 96 -78 281 -130 419
-15 42 -49 135 -75 206 -70 192 -148 327 -235 402 -28 25 -87 30 -112 11 -50
-40 -94 -154 -106 -278 -19 -189 12 -687 57 -900 5 -25 16 -79 25 -120 8 -41
22 -106 31 -145 47 -204 208 -684 279 -830 74 -151 121 -310 181 -610 20 -99
47 -225 61 -280 14 -55 23 -111 20 -126 -2 -14 -30 -90 -61 -170 -59 -150 -64
-163 -113 -269 -16 -36 -48 -110 -72 -165 -51 -121 -212 -450 -291 -595 -31
-58 -73 -136 -94 -175 -21 -38 -64 -114 -97 -168 -32 -54 -58 -99 -58 -101 0
-2 -32 -55 -71 -118 -284 -451 -501 -744 -894 -1204 -33 -39 -86 -102 -119
-140 -32 -38 -99 -112 -150 -165 -50 -52 -120 -127 -155 -165 -204 -220 -400
-423 -766 -789 -225 -226 -460 -462 -522 -525 -121 -125 -288 -288 -398 -389
-39 -35 -88 -80 -110 -101 -22 -20 -92 -81 -156 -136 -63 -54 -186 -162 -273
-239 -86 -77 -180 -159 -209 -183 -111 -92 -289 -202 -442 -272 -50 -23 -112
-52 -140 -65 -27 -13 -126 -56 -220 -95 -93 -39 -204 -86 -245 -105 -41 -19
-120 -52 -175 -76 -134 -55 -233 -98 -270 -114 -60 -26 -131 -58 -183 -81 -29
-13 -55 -24 -58 -24 -6 0 -224 -90 -284 -117 -61 -28 -225 -91 -228 -88 -2 2
-5 11 -6 22 -3 17 -54 40 -346 155 -30 12 -118 47 -195 79 -77 31 -187 76
-245 100 -58 23 -202 81 -320 129 -118 48 -262 107 -320 130 -494 196 -678
297 -924 508 -83 71 -225 191 -316 268 -91 76 -170 143 -176 148 -6 6 -30 27
-54 46 -23 19 -52 44 -64 55 -13 11 -58 51 -102 90 -97 86 -273 255 -599 575
-137 135 -299 293 -360 351 -283 269 -952 949 -1071 1089 -42 49 -81 90 -85
90 -5 0 -8 4 -6 8 1 5 -19 31 -44 58 -90 95 -346 406 -442 536 -31 43 -63 86
-71 95 -32 39 -92 121 -145 198 -30 44 -57 82 -60 85 -8 7 -29 41 -38 60 -4 8
-9 17 -12 20 -29 25 -325 514 -426 705 -27 50 -57 106 -68 125 -27 47 -187
368 -187 375 0 2 -31 69 -69 147 -79 164 -131 284 -131 304 0 8 -4 14 -10 14
-5 0 -10 7 -10 15 0 14 -5 26 -49 127 -12 26 -21 55 -21 64 0 10 16 87 35 173
19 86 44 210 55 277 18 110 42 213 84 365 8 30 38 109 66 174 119 272 260 758
326 1120 56 309 66 964 16 1028 -5 7 -12 23 -16 37 -3 14 -19 46 -36 72 -23
37 -37 48 -63 53 -52 10 -87 -14 -155 -108 -67 -92 -109 -178 -152 -307 -16
-47 -56 -165 -90 -263 -33 -99 -75 -231 -92 -295 -29 -108 -31 -130 -32 -277
0 -153 8 -232 39 -375 8 -36 31 -162 51 -280 61 -353 56 -643 -17 -920 -18
-69 -33 -137 -33 -152 -1 -14 -4 -24 -7 -22 -6 3 -25 -81 -38 -168 -7 -44 -17
-68 -24 -57 -1 2 -40 119 -87 259 -46 140 -87 262 -91 270 -5 12 -154 467
-189 580 -4 14 -26 84 -49 155 -23 72 -45 144 -50 160 -27 95 -45 152 -52 167
-5 10 -9 26 -9 35 0 10 -11 54 -25 98 -14 44 -32 109 -41 145 -8 36 -21 90
-28 120 -66 270 -91 410 -104 570 -9 118 -5 306 9 385 59 346 64 578 19 915
-12 93 -75 365 -90 392 -6 10 -10 26 -10 36 0 16 -16 64 -56 162 -10 25 -45
95 -76 155 -32 61 -79 152 -105 203 -26 51 -51 91 -57 89 -12 -4 -132 -364
-165 -495 -29 -114 -43 -253 -46 -472 -3 -202 18 -400 54 -495 10 -27 26 -72
36 -100 9 -27 28 -75 42 -105 13 -30 29 -66 35 -80 6 -14 14 -33 19 -42 5 -10
9 -23 9 -29 0 -6 6 -25 14 -42 20 -44 83 -207 112 -292 14 -38 29 -78 34 -87
6 -10 10 -27 10 -38 0 -11 3 -20 8 -20 4 0 13 -19 20 -42 8 -24 40 -103 73
-176 32 -74 59 -140 59 -147 0 -7 7 -35 15 -61 8 -27 28 -96 46 -154 17 -58
34 -114 39 -125 4 -11 18 -54 30 -95 12 -41 39 -131 61 -200 51 -161 54 -172
74 -250 40 -159 48 -187 61 -218 8 -18 14 -41 14 -52 0 -10 5 -22 10 -25 6 -3
10 -13 10 -20 0 -8 12 -40 26 -72 14 -32 29 -67 34 -78 5 -11 21 -47 35 -80
15 -33 33 -73 41 -90 29 -64 44 -119 35 -128 -14 -14 -27 -2 -78 76 -25 40
-83 128 -128 197 -134 206 -222 343 -235 370 -7 14 -16 27 -20 30 -11 7 -157
264 -165 289 -3 12 -11 21 -16 21 -5 0 -9 7 -9 15 0 24 -130 276 -179 345
-131 187 -339 396 -565 565 -37 28 -97 74 -134 103 -87 68 -127 87 -240 112
-84 18 -95 19 -109 5 -12 -12 -13 -21 -5 -43 6 -15 16 -60 23 -101 6 -41 27
-120 46 -175 39 -112 134 -303 170 -342 13 -14 23 -29 23 -33 0 -21 164 -208
255 -291 158 -145 271 -219 573 -371 196 -100 223 -118 347 -239 55 -54 168
-213 240 -338 6 -9 12 -19 15 -22 4 -3 42 -66 86 -140 77 -130 90 -155 150
-285 15 -33 53 -115 86 -183 32 -68 58 -125 58 -128 0 -3 28 -64 162 -344 45
-93 80 -171 108 -235 28 -67 267 -547 315 -635 32 -58 78 -143 102 -190 25
-47 61 -115 81 -152 20 -37 33 -71 29 -74 -9 -10 -198 86 -204 103 -3 7 -8 11
-12 9 -3 -2 -6 9 -7 25 -1 36 -55 126 -114 190 -86 94 -280 196 -574 301 -78
27 -172 63 -210 79 -92 39 -246 142 -326 217 -41 39 -74 62 -88 62 -50 0 -102
-46 -102 -90 0 -46 84 -154 231 -297 125 -122 255 -215 474 -340 228 -131 504
-229 755 -269 112 -18 172 -34 203 -53 37 -23 44 -33 162 -221 67 -107 334
-509 412 -620 84 -121 296 -391 421 -538 110 -129 1014 -1043 1207 -1221 39
-35 111 -103 161 -150 143 -136 455 -416 664 -596 63 -55 117 -102 120 -105 3
-3 57 -50 120 -105 249 -214 405 -349 436 -379 12 -12 63 -55 112 -96 123
-101 123 -114 0 -56 -161 76 -446 209 -503 234 -113 50 -600 296 -613 309 -7
7 -18 13 -23 13 -6 0 -41 17 -77 39 -37 21 -107 60 -157 87 -75 40 -404 223
-537 298 -32 18 -189 113 -281 171 -90 55 -326 213 -432 288 -290 207 -460
328 -480 345 -132 105 -334 268 -456 368 -251 207 -335 268 -783 566 -189 126
-197 131 -312 188 -157 78 -262 114 -669 230 -193 56 -189 55 -400 91 -237 40
-304 61 -522 163 -65 30 -143 64 -173 76 -30 12 -86 39 -125 60 -38 20 -100
54 -137 74 -37 20 -90 49 -118 66 -28 16 -53 30 -55 30 -3 0 -39 21 -82 46
-43 26 -166 89 -273 142 -194 94 -219 111 -365 243 -22 20 -56 50 -75 65 -19
16 -37 31 -40 35 -23 27 -173 124 -250 161 -213 102 -330 143 -535 188 -156
35 -173 38 -265 45 -36 3 -79 8 -97 11 -58 9 -406 5 -488 -6 -44 -6 -155 -15
-246 -19 -92 -5 -172 -11 -178 -15 -37 -23 19 -97 96 -126 32 -12 153 -70 268
-130 263 -136 396 -191 619 -255 135 -38 450 -96 626 -115 58 -6 137 -16 175
-21 39 -5 156 -19 260 -30 193 -20 266 -34 358 -70 71 -27 54 -19 407 -192
283 -139 448 -219 550 -264 145 -66 300 -145 300 -153 0 -11 -129 -6 -190 7
-14 2 -104 6 -200 8 -240 6 -476 14 -519 20 -20 2 -85 7 -146 11 -60 3 -126 7
-145 9 -46 4 -583 5 -635 2 -69 -5 -222 11 -353 37 -268 54 -320 59 -612 57
-151 0 -338 -5 -415 -11 -77 -5 -187 -12 -245 -15 -58 -3 -132 -10 -165 -15
-33 -5 -125 -19 -205 -31 -126 -18 -279 -52 -360 -78 -14 -5 -45 -14 -70 -21
-25 -7 -54 -16 -65 -20 -11 -5 -38 -14 -60 -20 -22 -6 -49 -15 -60 -20 -41
-18 -315 -120 -362 -135 -26 -9 -57 -20 -68 -25 -11 -4 -40 -16 -65 -25 -25
-9 -58 -22 -75 -30 -90 -38 -157 -65 -166 -65 -9 0 -44 -15 -145 -61 -48 -23
-90 -64 -75 -74 6 -3 16 -3 23 1 7 4 8 3 4 -4 -10 -16 97 -64 199 -90 131 -34
228 -42 496 -45 236 -1 716 10 728 18 4 2 83 6 176 10 162 6 257 16 460 51 91
15 279 58 325 73 14 5 54 17 90 26 36 9 74 21 85 25 11 4 56 18 100 30 44 13
130 41 190 63 61 21 135 47 165 57 141 46 318 123 402 176 26 17 64 28 116 34
103 13 126 18 201 42 60 19 76 20 215 12 83 -5 206 -8 274 -7 93 1 122 -2 122
-12 0 -7 -90 -58 -200 -114 -110 -55 -217 -111 -237 -124 -21 -13 -45 -26 -53
-29 -26 -9 -270 -208 -330 -268 -26 -26 -239 -209 -300 -257 -58 -46 -195
-145 -242 -176 -55 -35 -88 -82 -88 -124 0 -24 87 -56 133 -49 23 4 46 11 52
15 5 5 28 14 50 21 85 27 395 154 500 205 61 30 153 82 205 116 106 69 356
253 381 281 9 10 20 18 23 18 4 0 13 6 20 13 7 6 57 48 111 92 54 44 159 131
233 193 75 62 160 124 189 138 l53 27 213 -7 c116 -4 241 -9 277 -11 276 -17
351 -22 425 -31 101 -11 342 -54 418 -73 88 -23 346 -106 394 -127 17 -8 34
-14 37 -14 36 0 381 -176 505 -258 164 -107 369 -264 416 -317 18 -20 158
-139 260 -221 113 -91 216 -163 259 -182 21 -9 26 -16 18 -24 -7 -7 -41 0
-119 25 -110 37 -180 48 -408 67 -71 6 -146 13 -165 15 -19 2 -75 7 -125 10
-192 13 -306 40 -389 93 -24 15 -70 59 -104 98 -63 74 -100 106 -192 165 -106
69 -145 94 -165 105 -37 21 -160 97 -185 114 -48 34 -242 150 -249 150 -5 0
-49 25 -99 55 -54 32 -103 55 -120 55 -33 0 -72 -36 -72 -66 0 -20 32 -85 63
-125 62 -84 116 -158 142 -195 50 -71 128 -179 134 -184 18 -15 62 -82 58 -86
-3 -3 -36 -7 -74 -10 -37 -2 -75 -7 -83 -10 -8 -3 -109 -10 -225 -14 -202 -7
-363 -31 -417 -60 -10 -6 -27 -10 -37 -10 -11 0 -23 -4 -26 -10 -3 -5 -14 -10
-24 -10 -46 0 -372 -183 -466 -262 -11 -10 -56 -45 -100 -80 -44 -35 -87 -70
-97 -78 -9 -8 -29 -25 -45 -37 -79 -61 -385 -318 -437 -367 -56 -52 -60 -84
-17 -127 46 -46 80 -42 261 31 30 12 63 26 72 31 10 5 22 9 27 9 5 0 44 16 85
35 42 19 79 35 82 35 7 0 46 17 141 61 35 16 149 63 255 105 106 41 206 81
223 89 16 7 75 30 130 50 55 20 108 41 117 46 10 5 25 9 33 9 8 0 23 4 33 10
64 36 399 140 622 194 110 26 274 56 300 54 53 -4 85 6 146 48 l69 45 205 -2
c224 -3 349 -11 540 -35 314 -39 550 -94 674 -156 77 -38 343 -212 651 -424
83 -57 197 -134 255 -172 58 -38 159 -104 225 -148 66 -43 157 -101 201 -129
305 -188 280 -174 849 -465 132 -67 245 -127 252 -132 12 -10 570 -288 577
-288 3 0 46 -20 98 -44 51 -24 113 -53 138 -64 25 -11 91 -41 147 -66 57 -25
158 -69 225 -97 68 -28 128 -55 133 -59 6 -4 21 -11 35 -15 14 -4 57 -22 95
-40 39 -18 128 -58 198 -89 71 -31 136 -61 145 -66 9 -5 40 -19 67 -30 28 -12
68 -30 90 -40 22 -11 117 -54 210 -96 94 -42 199 -90 234 -106 195 -89 706
-305 864 -365 37 -14 67 -30 66 -37 -1 -19 -249 -219 -407 -328 -18 -13 -39
-28 -45 -34 -7 -5 -50 -37 -97 -69 -78 -54 -138 -96 -244 -172 -111 -79 -190
-149 -217 -191 -34 -54 -38 -97 -10 -112 16 -8 24 -5 44 19 27 32 106 103 157
141 18 14 45 34 59 46 14 11 71 49 126 85 178 115 497 330 613 413 62 44 119
85 126 90 10 7 35 -7 87 -44 99 -73 428 -290 634 -420 197 -124 396 -268 445
-322 31 -34 38 -37 54 -25 14 10 16 20 10 52 -13 73 -110 153 -520 430 -261
176 -534 383 -534 404 0 4 33 20 73 35 139 55 574 248 851 380 76 36 140 66
142 66 3 0 84 38 180 85 96 47 177 85 179 85 2 0 55 24 117 54 234 112 336
160 453 211 66 29 163 73 215 98 134 63 210 97 215 97 14 0 716 355 840 425
22 12 72 39 110 60 39 21 90 49 115 63 25 14 92 50 150 80 215 112 258 135
399 215 164 93 654 414 871 570 80 58 199 142 265 187 66 45 140 96 165 114
249 180 423 281 535 311 152 40 468 99 590 110 65 6 157 16 200 22 22 2 137 8
255 12 l215 7 29 -23 c50 -42 102 -62 167 -67 98 -7 275 -38 419 -73 105 -26
417 -119 525 -158 55 -20 143 -51 195 -69 155 -56 333 -122 385 -145 23 -10
294 -118 508 -202 271 -106 314 -118 353 -92 14 9 32 29 40 44 22 44 1 73
-137 185 -67 55 -165 134 -218 177 -401 326 -619 464 -864 551 -137 49 -234
64 -452 70 -289 9 -419 21 -412 40 3 6 30 47 61 91 31 44 63 89 71 100 7 11
37 52 64 90 138 191 191 277 191 311 0 22 -49 64 -74 64 -12 0 -39 -12 -61
-27 -35 -24 -119 -73 -205 -119 -14 -8 -83 -52 -155 -98 -71 -47 -195 -126
-275 -177 -175 -111 -243 -166 -299 -240 -119 -156 -241 -191 -806 -234 -163
-12 -242 -27 -377 -72 -133 -44 -169 -38 -82 13 78 47 327 247 410 328 11 12
53 49 92 84 39 35 82 73 95 85 191 171 473 348 743 465 212 93 488 181 694
221 74 15 328 49 415 56 228 18 471 30 610 30 147 0 152 -2 264 -88 59 -45
382 -301 501 -397 78 -62 293 -213 375 -263 48 -29 328 -164 355 -172 14 -3
59 -19 100 -35 41 -15 109 -40 150 -55 77 -27 113 -41 140 -55 41 -20 77 -20
123 0 25 11 49 25 53 31 13 21 -27 99 -59 116 -30 15 -142 90 -247 165 -41 29
-335 273 -369 306 -29 28 -209 171 -259 205 -30 20 -124 71 -210 113 -257 124
-322 158 -322 170 0 8 56 13 173 18 94 3 218 9 273 12 76 5 116 2 155 -9 70
-20 150 -35 224 -42 43 -4 79 -17 130 -45 86 -47 308 -135 470 -185 66 -21
174 -55 240 -75 142 -46 524 -140 625 -155 128 -18 438 -44 560 -45 80 -1 177
-3 215 -5 100 -6 679 -5 745 0 30 2 89 7 130 10 156 12 348 73 434 138 18 13
17 15 -25 44 -24 16 -66 37 -94 47 -27 10 -65 25 -83 33 -18 8 -90 35 -160 60
-70 24 -183 65 -252 89 -69 25 -165 59 -215 75 -49 17 -126 43 -170 59 -99 34
-248 77 -295 85 -19 3 -62 12 -95 20 -224 54 -537 79 -1100 89 -313 5 -433 -7
-770 -80 -109 -23 -146 -26 -390 -29 -252 -4 -469 -11 -575 -20 -37 -3 -142
-12 -365 -30 -16 -1 -97 -6 -180 -9 -140 -7 -392 -21 -565 -32 -70 -4 -74 -3
-55 12 11 9 112 61 225 116 247 121 331 163 610 307 442 229 469 238 815 281
169 20 367 48 540 75 137 22 147 23 195 35 25 6 92 22 150 36 250 60 534 180
825 348 44 26 116 61 159 79 71 29 81 36 97 72 10 21 16 42 13 46 -6 10 -87
19 -232 24 -67 2 -126 6 -131 10 -26 15 -558 7 -654 -11 -10 -2 -74 -12 -141
-24 -246 -41 -573 -164 -761 -285 -54 -35 -196 -150 -257 -208 -130 -124 -186
-163 -352 -245 -94 -46 -236 -124 -316 -172 -161 -96 -190 -113 -370 -212 -69
-37 -129 -68 -134 -68 -5 0 -57 -22 -115 -49 -259 -120 -321 -145 -391 -155
-240 -36 -500 -104 -855 -221 -61 -21 -110 -38 -240 -87 -92 -35 -307 -163
-464 -276 -95 -68 -193 -136 -248 -174 -50 -33 -229 -165 -250 -183 -6 -5 -26
-21 -44 -35 -18 -14 -120 -99 -227 -190 -107 -91 -215 -182 -240 -203 -26 -21
-60 -50 -75 -63 -38 -34 -383 -294 -482 -364 -44 -31 -161 -115 -260 -186 -99
-71 -195 -139 -212 -149 -18 -11 -108 -68 -200 -127 -93 -58 -235 -145 -318
-192 -82 -48 -157 -91 -165 -96 -31 -19 -126 -74 -165 -95 -92 -50 -301 -168
-310 -175 -24 -19 -244 -133 -555 -286 -184 -91 -393 -195 -464 -230 -71 -36
-131 -63 -133 -61 -9 9 10 35 49 67 38 32 114 100 228 205 93 85 168 152 240
215 41 36 123 110 183 165 60 55 135 123 167 150 224 195 548 503 905 860 853
852 1127 1155 1403 1547 13 18 56 79 95 135 40 56 108 158 152 227 44 70 103
161 130 204 28 42 92 147 143 232 118 195 122 198 314 238 339 71 550 149 778
288 36 22 76 47 90 55 51 30 208 145 280 205 117 98 236 230 304 338 25 40 15
85 -27 114 -50 33 -76 29 -127 -24 -126 -129 -253 -206 -490 -299 -337 -132
-484 -205 -582 -289 -59 -49 -140 -166 -162 -233 -14 -43 -23 -52 -79 -83 -88
-49 -136 -70 -141 -62 -5 8 27 71 235 482 115 225 215 439 304 645 26 61 61
139 77 175 54 116 75 164 108 240 18 41 48 109 67 150 19 41 38 84 43 95 5 11
20 46 34 78 14 31 37 83 50 115 31 72 119 241 163 310 18 29 33 55 33 57 0 3
19 35 43 73 23 37 47 77 54 88 62 102 94 148 137 199 63 74 83 93 171 160 86
65 107 78 270 159 125 62 316 183 406 256 193 158 379 396 475 608 23 52 45
96 48 99 3 4 6 17 6 29 0 13 4 25 9 28 4 3 11 20 14 38 3 18 17 87 31 153 34
163 33 164 -128 115 -107 -32 -145 -56 -351 -224 -160 -130 -277 -240 -398
-375 -47 -52 -147 -183 -147 -193 0 -4 -15 -31 -33 -60 -19 -29 -60 -109 -91
-178 -60 -130 -156 -316 -186 -360 -15 -22 -71 -115 -130 -215 -28 -48 -149
-245 -188 -305 -19 -30 -45 -71 -57 -90 -94 -152 -109 -168 -121 -137 -7 18
15 80 88 251 33 77 66 161 74 186 8 25 19 54 23 65 10 22 23 71 75 280 19 77
44 167 54 200 11 33 27 89 37 125 9 36 20 74 25 85 11 29 51 166 57 195 2 14
8 34 13 45 5 11 22 74 38 141 16 66 44 151 61 188 17 37 31 71 31 75 0 4 7 22
15 39 9 17 38 93 65 169 26 76 69 197 94 268 25 72 51 141 57 155 18 38 27 62
35 90 4 14 17 48 29 75 50 108 97 258 116 360 5 28 11 142 13 255 4 159 0 240
-14 361 -19 161 -34 218 -127 484 -24 72 -51 151 -60 178 -14 46 -26 57 -38
37z m47 -222 c39 -74 83 -208 109 -326 16 -73 22 -138 23 -267 4 -270 -14
-413 -84 -689 -16 -61 -32 -122 -35 -136 -4 -14 -10 -34 -14 -45 -10 -25 -25
-68 -62 -175 -16 -47 -33 -94 -38 -105 -5 -11 -20 -49 -34 -85 -14 -36 -41
-99 -60 -140 -19 -41 -42 -96 -52 -122 -23 -62 -45 -82 -45 -42 0 16 -6 63
-14 104 -8 41 -17 98 -20 125 -3 28 -10 91 -15 140 -6 50 -13 131 -17 180 -3
50 -8 93 -11 97 -7 13 -6 506 2 603 25 325 95 591 199 759 109 176 117 187
128 184 6 -2 24 -29 40 -60z m-15995 -203 c38 -60 75 -126 82 -145 7 -19 17
-44 21 -55 31 -75 85 -293 95 -385 3 -30 10 -82 15 -115 5 -33 12 -99 15 -147
6 -108 7 -546 1 -556 -2 -4 -7 -59 -10 -122 -3 -63 -13 -175 -22 -249 -8 -73
-13 -140 -10 -148 3 -8 2 -12 -3 -9 -5 3 -12 -21 -15 -54 -4 -33 -11 -60 -16
-60 -6 0 -10 7 -10 15 0 8 -4 23 -9 33 -12 22 -119 256 -138 302 -8 19 -20 49
-27 65 -7 17 -21 53 -31 80 -9 28 -34 97 -55 155 -20 58 -42 123 -48 145 -84
315 -88 334 -112 580 -27 281 20 589 121 786 39 76 30 83 156 -116z m14471
-1430 c92 -98 156 -227 210 -420 22 -77 55 -178 75 -225 19 -47 38 -100 42
-119 15 -69 31 -299 29 -391 -7 -185 -56 -595 -83 -686 -14 -49 -21 -59 -40
-59 -46 0 -77 155 -86 435 -5 166 -10 254 -25 449 -6 68 -10 130 -10 137 0 8
-4 14 -9 14 -22 0 -30 -404 -11 -585 6 -55 13 -129 16 -165 4 -36 8 -69 11
-73 3 -4 7 -31 10 -60 3 -29 13 -92 23 -142 10 -49 15 -94 11 -98 -16 -16
-208 566 -265 803 -45 186 -81 392 -93 535 -25 296 10 682 65 714 38 22 60 11
130 -64z m-12952 -3 c38 -30 74 -243 81 -469 4 -170 -9 -376 -33 -495 -2 -13
-11 -63 -20 -113 -29 -171 -110 -474 -200 -750 -31 -93 -58 -181 -61 -195 -4
-26 -19 -47 -27 -39 -3 2 -1 24 5 47 5 24 12 62 14 85 20 165 38 312 45 367
13 96 5 556 -11 605 l-13 40 -7 -70 c-10 -109 -19 -301 -24 -535 -5 -216 -22
-360 -50 -426 -31 -75 -62 -16 -99 186 -14 80 -29 177 -31 215 -3 39 -11 95
-18 125 -7 33 -11 142 -11 275 0 233 12 322 56 424 24 55 61 175 79 251 15 70
50 171 80 235 32 70 125 192 172 226 47 34 46 34 73 11z m15438 -455 c-3 -139
-77 -319 -207 -502 -68 -95 -285 -324 -372 -393 -96 -75 -225 -166 -283 -200
-35 -20 -77 -45 -94 -55 -69 -41 -181 -97 -194 -97 -39 0 -6 44 205 269 64 68
139 149 166 179 28 31 85 94 127 141 43 47 78 90 78 96 0 5 -60 -49 -132 -121
-309 -302 -400 -389 -409 -392 -16 -6 -10 17 30 101 21 45 44 98 51 117 51
137 179 323 326 473 81 82 312 277 329 277 4 0 24 13 44 29 43 34 85 59 210
123 86 45 96 48 110 33 12 -11 16 -33 15 -78z m-17873 -89 c128 -68 120 -62
224 -133 276 -188 516 -444 620 -662 21 -43 57 -119 81 -169 66 -136 61 -143
-35 -51 -56 53 -159 150 -429 405 -25 23 -50 42 -55 42 -6 0 -7 -3 -3 -7 4 -5
60 -64 124 -132 65 -69 165 -175 223 -235 247 -260 274 -290 263 -308 -6 -9
-194 83 -292 143 -35 21 -66 39 -68 39 -6 0 -198 137 -219 157 -11 10 -38 31
-60 47 -80 58 -290 281 -350 371 -33 50 -63 92 -66 95 -10 7 -94 199 -107 245
-26 90 -32 153 -17 189 18 42 15 43 166 -36z m16725 -3162 c6 -15 -29 -90 -46
-101 -6 -4 -38 -48 -72 -98 -98 -146 -218 -252 -448 -398 -47 -29 -101 -64
-120 -77 -61 -41 -191 -98 -300 -131 -58 -18 -161 -50 -230 -72 -126 -39 -164
-47 -158 -30 2 5 44 53 93 106 88 95 124 145 125 176 1 35 113 106 245 155 28
10 61 24 75 31 14 7 29 13 33 13 17 0 345 159 457 221 67 38 308 197 316 210
8 13 24 11 30 -5z m-15623 -113 c166 -117 206 -141 422 -247 208 -102 260
-125 419 -186 77 -29 157 -63 178 -75 42 -24 88 -79 88 -106 0 -17 87 -119
167 -196 64 -61 57 -77 -22 -49 -22 8 -121 38 -221 65 -197 55 -305 97 -409
160 -37 23 -69 41 -71 41 -7 0 -215 142 -294 201 -88 66 -130 110 -198 212
-28 41 -65 90 -82 108 -35 38 -53 76 -46 96 7 18 10 17 69 -24z m19575 -329
c166 -13 242 -22 242 -30 0 -40 -268 -168 -570 -272 -156 -54 -353 -118 -420
-136 -30 -9 -89 -25 -130 -36 -257 -72 -610 -151 -735 -165 -115 -13 -235 -17
-235 -8 0 6 19 23 43 38 23 15 78 64 122 109 99 102 172 162 250 207 84 49
423 206 460 212 42 8 193 41 302 66 105 24 255 39 358 36 39 -1 179 -10 313
-21z m-22898 -169 c74 -14 173 -33 220 -42 79 -15 140 -38 310 -115 36 -17 83
-37 105 -46 123 -49 287 -169 404 -295 19 -20 54 -50 78 -65 24 -15 43 -33 43
-41 0 -22 -172 -7 -445 40 -218 37 -503 106 -835 203 -260 76 -528 175 -685
253 -110 55 -144 77 -133 89 4 3 75 12 160 20 500 47 533 47 778 -1z m22965
-1096 c55 -4 127 -10 160 -14 99 -9 382 -55 510 -82 241 -50 341 -72 395 -87
30 -8 66 -18 80 -22 14 -3 77 -22 140 -41 256 -78 327 -104 540 -198 86 -38
110 -52 110 -65 0 -9 -339 -53 -510 -66 -47 -3 -87 -8 -90 -9 -3 -2 -55 -6
-115 -10 -61 -4 -128 -9 -150 -11 -78 -10 -692 -12 -792 -3 -57 4 -140 15
-185 24 -46 8 -108 20 -138 25 -142 26 -499 137 -720 223 -36 13 -96 36 -135
50 -183 66 -245 91 -245 98 0 5 48 7 108 4 130 -5 722 -8 812 -5 l65 3 -90 8
c-83 7 -308 21 -545 35 -52 3 -142 9 -200 15 -58 5 -108 9 -112 9 -19 0 -6 28
15 33 12 2 49 12 82 21 116 32 296 63 400 69 107 7 515 4 610 -4z m-22960
-159 c165 -17 385 -69 385 -90 0 -6 -6 -10 -12 -10 -7 0 -53 -5 -103 -10 -49
-5 -151 -14 -225 -20 -74 -6 -153 -13 -175 -15 -53 -5 -154 -12 -295 -21 -63
-3 -122 -11 -130 -16 -9 -6 78 -7 235 -4 429 10 659 17 693 21 89 11 -9 -35
-323 -150 -55 -20 -111 -41 -125 -47 -117 -49 -301 -112 -430 -148 -25 -7 -72
-21 -105 -31 -73 -22 -130 -33 -310 -60 -118 -18 -194 -22 -485 -24 -360 -3
-526 3 -820 30 -403 36 -440 41 -440 56 0 11 128 76 235 119 82 33 94 38 155
64 57 24 277 96 294 96 9 0 24 4 34 9 36 19 292 88 467 126 44 9 94 21 110 26
100 29 582 97 741 105 76 3 141 8 143 10 8 8 384 -5 486 -16z m20586 -44 c149
-34 355 -119 487 -203 29 -18 55 -33 58 -33 8 0 216 -141 264 -179 25 -20 49
-39 55 -43 76 -57 223 -185 311 -273 99 -99 194 -211 194 -228 0 -35 -249 43
-450 140 -292 142 -497 282 -963 655 -80 64 -155 123 -166 130 -26 16 -27 35
-3 42 21 6 176 0 213 -8z m-18723 -114 c8 -6 -52 -62 -190 -176 -112 -92 -210
-173 -218 -180 -210 -165 -352 -270 -422 -311 -10 -5 -64 -37 -120 -71 -189
-112 -327 -178 -448 -213 -25 -7 -54 -17 -65 -21 -11 -5 -39 -13 -63 -18 -53
-13 -65 4 -32 45 48 63 232 252 326 338 112 101 338 275 454 349 125 81 330
182 445 221 112 38 299 58 333 37z m17358 -306 c-4 -19 -13 -47 -21 -62 -7
-16 -23 -49 -34 -74 -95 -208 -306 -422 -502 -507 -107 -46 -167 -57 -279 -50
-104 6 -150 19 -150 40 0 39 374 318 647 483 58 34 237 146 282 175 57 37 65
36 57 -5z m-16095 -127 c207 -122 442 -269 555 -348 44 -31 112 -77 150 -104
105 -72 178 -141 171 -160 -8 -22 -106 -41 -202 -39 -102 1 -192 28 -315 95
-180 99 -383 338 -459 541 -23 62 -25 76 -13 76 5 0 55 -28 113 -61z m16489
-534 c69 -18 158 -44 198 -59 275 -100 567 -293 991 -655 30 -25 75 -64 100
-85 25 -21 47 -42 49 -46 6 -16 -20 -22 -46 -12 -15 6 -88 29 -162 52 -177 55
-336 108 -380 127 -81 35 -128 54 -360 147 -91 37 -174 71 -185 75 -75 33
-233 85 -440 146 -49 15 -101 30 -115 35 -26 9 -67 19 -275 65 -69 15 -191 32
-286 40 -124 9 -173 17 -193 30 -34 22 -33 31 6 51 123 64 375 111 653 123
224 10 295 5 445 -34z m-16396 -71 c185 -14 292 -31 406 -66 87 -27 130 -48
130 -63 0 -20 -76 -43 -165 -50 -100 -7 -249 -30 -340 -51 -122 -29 -525 -144
-570 -163 -11 -5 -58 -23 -105 -41 -103 -39 -86 -32 -300 -121 -96 -40 -179
-76 -185 -80 -5 -4 -46 -21 -90 -38 -81 -32 -100 -40 -145 -59 -54 -23 -177
-71 -210 -81 -159 -50 -270 -85 -297 -94 -18 -6 -36 -7 -40 -3 -9 8 7 24 241
231 192 170 479 383 621 460 91 50 222 115 230 115 4 0 21 6 38 14 75 32 265
83 359 95 88 12 212 11 422 -5z"/>
</g>
</svg>
