<?xml version="1.0" standalone="no"?>
<!DOCTYPE svg PUBLIC "-//W3C//DTD SVG 20010904//EN"
 "http://www.w3.org/TR/2001/REC-SVG-20010904/DTD/svg10.dtd">
<svg version="1.0" xmlns="http://www.w3.org/2000/svg"
 width="512.000000pt" height="512.000000pt" viewBox="0 0 512.000000 512.000000"
 preserveAspectRatio="xMidYMid meet">

<g transform="translate(0.000000,512.000000) scale(0.100000,-0.100000)"
fill="#000000" stroke="none">
<path d="M2538 5109 c-16 -9 -18 -28 -18 -174 l0 -165 -166 -2 c-146 -3 -168
-5 -178 -20 -8 -13 -8 -23 0 -35 10 -16 32 -18 178 -21 l166 -2 0 -278 0 -277
-435 -435 -435 -435 0 298 c0 187 -4 306 -10 318 -16 29 -58 25 -70 -7 -6 -16
-10 -405 -10 -1040 l0 -1014 -158 0 c-110 0 -162 -4 -170 -12 -9 -9 -12 -177
-12 -695 l0 -683 -166 -2 c-146 -3 -168 -5 -178 -20 -8 -13 -8 -23 0 -35 11
-17 102 -18 1684 -18 1582 0 1673 1 1684 18 8 12 8 22 0 35 -10 15 -32 17
-178 20 l-166 2 0 683 c0 518 -3 686 -12 695 -8 8 -60 12 -170 12 l-158 0 0
1014 c0 635 -4 1024 -10 1040 -12 32 -54 36 -70 7 -6 -12 -10 -131 -10 -318
l0 -298 -435 435 -435 435 0 277 0 278 166 2 c146 3 168 5 178 21 8 12 8 22 0
35 -10 15 -32 17 -178 20 l-166 2 0 165 c0 152 -1 165 -19 175 -23 12 -22 12
-43 -1z m479 -1501 l453 -453 0 -688 c0 -455 4 -695 10 -708 10 -18 23 -19
175 -19 l165 0 0 -655 0 -655 -304 0 -305 0 -3 428 c-4 414 -4 429 -27 497
-91 277 -342 465 -621 465 -279 0 -530 -188 -621 -465 -23 -68 -23 -83 -27
-497 l-3 -428 -305 0 -304 0 0 655 0 655 165 0 c152 0 165 1 175 19 6 13 10
253 10 708 l0 688 452 452 c249 249 455 453 458 453 3 0 209 -204 457 -452z
m-497 -2262 l0 -383 -40 -7 c-31 -5 -41 -11 -46 -31 -8 -33 9 -53 49 -57 l32
-3 3 -213 2 -212 -260 0 -260 0 0 400 c0 249 4 419 11 452 27 132 134 283 250
354 71 43 180 83 227 84 l32 0 0 -384z m203 363 c192 -64 348 -232 386 -417 7
-33 11 -203 11 -452 l0 -400 -260 0 -260 0 2 213 3 212 32 3 c40 4 57 24 49
57 -5 20 -15 26 -46 31 l-40 7 0 383 0 384 30 0 c17 0 59 -9 93 -21z"/>
<path d="M2473 3192 c-99 -35 -166 -100 -198 -193 -20 -55 -22 -538 -3 -557
19 -19 561 -17 577 2 9 10 11 87 9 278 -3 250 -4 265 -26 309 -67 136 -227
208 -359 161z m182 -90 c43 -21 74 -51 98 -97 21 -38 22 -54 22 -265 l0 -225
-215 0 -215 0 0 225 c0 242 3 257 59 318 59 65 169 85 251 44z"/>
<path d="M707 3543 c-4 -3 -7 -124 -7 -267 l0 -261 -220 -220 -220 -220 0 302
c0 261 -2 304 -16 317 -19 19 -36 20 -52 4 -9 -9 -12 -235 -12 -955 l0 -943
-80 0 c-68 0 -81 -3 -90 -19 -6 -13 -10 -175 -10 -458 0 -473 1 -479 51 -471
l24 3 5 430 5 430 75 3 c41 2 80 8 87 14 10 8 13 133 13 617 l0 606 240 240
240 240 240 -240 240 -240 0 -131 c0 -147 8 -167 55 -146 l25 12 -2 501 c-3
465 -4 503 -20 513 -13 8 -23 8 -35 0 -16 -10 -18 -38 -21 -318 -1 -168 -6
-306 -10 -306 -4 0 -103 96 -220 213 l-212 212 0 257 c0 141 -3 263 -6 272 -6
16 -54 22 -67 9z"/>
<path d="M4346 3535 c-3 -9 -6 -132 -6 -273 l0 -257 -213 -213 c-117 -116
-215 -212 -219 -212 -4 0 -9 138 -10 306 -3 280 -5 308 -20 318 -13 8 -23 8
-35 0 -17 -10 -18 -49 -21 -540 -1 -291 0 -539 3 -552 5 -19 11 -23 38 -20
l32 3 3 180 2 181 240 239 240 240 240 -240 240 -240 0 -606 c0 -484 3 -609
13 -617 7 -6 46 -12 87 -14 l75 -3 5 -430 5 -430 24 -3 c50 -8 51 -2 51 471 0
283 -4 445 -10 458 -9 16 -22 19 -90 19 l-80 0 0 943 c0 720 -3 946 -12 955
-16 16 -33 15 -52 -4 -14 -13 -16 -56 -16 -317 l0 -302 -220 220 -220 220 -2
265 -3 265 -31 3 c-22 2 -33 -2 -38 -13z"/>
<path d="M712 2332 c-9 -6 -12 -38 -10 -123 l3 -114 29 -3 c16 -2 32 2 37 10
14 21 11 212 -3 226 -14 14 -37 15 -56 4z"/>
<path d="M4352 2328 c-14 -14 -17 -205 -3 -226 5 -8 21 -12 37 -10 l29 3 3
114 c3 117 -1 130 -38 131 -9 0 -21 -5 -28 -12z"/>
<path d="M550 1642 c-26 -9 -30 -24 -30 -123 0 -109 11 -136 52 -126 32 8 38
29 38 130 0 100 -17 133 -60 119z"/>
<path d="M887 1637 c-15 -11 -17 -27 -15 -121 3 -91 6 -111 21 -120 12 -8 22
-8 35 0 14 9 17 29 20 120 2 94 0 110 -15 121 -9 7 -20 13 -23 13 -3 0 -14 -6
-23 -13z"/>
<path d="M4187 1637 c-15 -11 -17 -27 -15 -121 3 -91 6 -111 21 -120 12 -8 22
-8 35 0 14 9 17 29 20 120 2 94 0 110 -15 121 -9 7 -20 13 -23 13 -3 0 -14 -6
-23 -13z"/>
<path d="M4530 1630 c-17 -17 -20 -34 -20 -102 0 -106 6 -127 38 -135 41 -10
52 17 52 126 0 53 -4 101 -8 107 -15 22 -42 24 -62 4z"/>
<path d="M12 68 c-16 -16 -15 -33 4 -52 14 -14 259 -16 2544 -16 2285 0 2530
2 2544 16 19 19 20 36 4 52 -17 17 -5079 17 -5096 0z"/>
</g>
</svg>
