<?xml version="1.0" standalone="no"?>
<!DOCTYPE svg PUBLIC "-//W3C//DTD SVG 20010904//EN"
 "http://www.w3.org/TR/2001/REC-SVG-20010904/DTD/svg10.dtd">
<svg version="1.0" xmlns="http://www.w3.org/2000/svg"
 width="536.000000pt" height="397.000000pt" viewBox="0 0 536.000000 397.000000"
 preserveAspectRatio="xMidYMid meet">

<g transform="translate(0.000000,397.000000) scale(0.100000,-0.100000)"
fill="#000000" stroke="none">
<path d="M2510 3736 c-116 -41 -201 -137 -345 -391 -127 -223 -212 -344 -319
-451 -91 -91 -112 -107 -206 -152 -111 -54 -225 -86 -349 -98 -69 -6 -74 -6
-67 11 4 10 44 129 90 264 199 583 276 768 332 793 32 15 30 28 -4 28 -43 0
-104 -50 -154 -127 -59 -88 -83 -137 -157 -318 -120 -291 -182 -375 -684 -931
-279 -307 -365 -427 -407 -563 -84 -269 120 -403 370 -243 71 45 174 150 228
232 91 138 217 409 327 704 l49 129 110 -6 c228 -12 366 -90 412 -235 20 -66
23 -239 5 -382 -6 -46 -11 -139 -11 -205 1 -301 93 -445 326 -505 95 -25 284
-39 284 -22 0 8 -22 12 -62 12 -145 1 -286 44 -361 109 -94 83 -113 201 -78
492 40 335 21 484 -76 599 -56 68 -138 106 -313 147 -32 8 -27 10 75 36 127
31 280 101 372 171 137 104 233 234 377 512 135 262 207 344 329 375 26 6 47
15 47 20 0 13 -100 10 -140 -5z m-1399 -1037 c-191 -535 -272 -724 -385 -903
-68 -108 -103 -148 -174 -203 -83 -65 -176 -82 -240 -43 -48 29 -65 79 -59
165 12 172 100 305 454 687 212 230 347 388 443 521 34 48 64 86 67 84 2 -2
-46 -141 -106 -308z"/>
<path d="M4271 2590 c-77 -37 -179 -136 -243 -235 -102 -157 -252 -498 -383
-870 -16 -44 -29 -81 -30 -83 -1 -1 -38 -7 -83 -14 -93 -13 -121 -32 -102 -67
13 -25 45 -27 99 -5 22 9 44 14 49 12 22 -8 -262 -690 -297 -712 -5 -3 -47 12
-94 34 -125 58 -189 74 -292 74 -165 0 -311 -68 -383 -180 -149 -233 -12 -453
280 -454 177 0 336 108 488 332 35 51 66 97 70 101 4 4 78 -35 166 -89 204
-123 291 -167 422 -211 269 -90 532 -42 825 150 79 53 101 83 80 116 -21 34
-61 25 -116 -25 -28 -26 -91 -73 -139 -105 -279 -183 -571 -186 -898 -7 -57
31 -293 175 -319 195 -2 1 32 78 76 170 72 150 169 382 248 590 l27 73 51 14
c29 8 67 18 84 21 36 7 50 22 36 36 -7 7 -34 4 -77 -7 -37 -9 -69 -15 -71 -12
-3 2 35 110 83 239 221 586 368 832 531 887 121 42 271 -24 321 -139 30 -72
26 -191 -10 -263 -29 -58 -87 -104 -142 -112 -21 -4 -41 -10 -43 -15 -11 -16
14 -18 66 -5 43 12 63 24 101 65 139 152 98 411 -79 498 -47 22 -73 28 -147
31 -85 3 -95 1 -155 -28z m-1228 -1916 c80 -21 217 -83 217 -99 0 -22 -114
-188 -173 -252 -32 -34 -80 -76 -107 -93 -97 -62 -229 -86 -335 -59 -53 13
-122 70 -141 116 -35 83 -1 207 78 285 112 113 279 149 461 102z"/>
</g>
</svg>
